<!DOCTYPE svg PUBLIC "-//W3C//DTD SVG 1.1//EN" "http://www.w3.org/Graphics/SVG/1.1/DTD/svg11.dtd">
<!-- Uploaded to: SVG Repo, www.svgrepo.com, Transformed by: SVG Repo Mixer Tools -->
<svg fill="#ffffff" version="1.1" id="Capa_1" xmlns="http://www.w3.org/2000/svg" xmlns:xlink="http://www.w3.org/1999/xlink" width="800px" height="800px" viewBox="0 0 30.487 30.486" xml:space="preserve">
<g id="SVGRepo_bgCarrier" stroke-width="0"/>
<g id="SVGRepo_tracerCarrier" stroke-linecap="round" stroke-linejoin="round"/>
<g id="SVGRepo_iconCarrier"> <g> <path d="M28.866,17.477h-2.521V15.03h-2.56c0.005-2.8-0.304-5.204-0.315-5.308l-0.088-0.67L22.75,8.811 c-0.021-0.008-0.142-0.051-0.317-0.109l2.287-8.519L19,4.836L15.23,0.022V0l-0.009,0.01L15.215,0v0.021l-3.769,4.815L5.725,0.183 l2.299,8.561c-0.157,0.051-0.268,0.09-0.288,0.098L7.104,9.084l-0.088,0.67c-0.013,0.104-0.321,2.508-0.316,5.308h-2.56v2.446H1.62 l0.447,2.514L1.62,22.689h6.474c1.907,2.966,5.186,7.549,7.162,7.797v-0.037c1.979-0.283,5.237-4.838,7.137-7.79h6.474l-0.447-2.67 L28.866,17.477z M21.137,20.355c-0.422,1.375-4.346,6.949-5.907,7.758v0.015c-1.577-0.853-5.461-6.373-5.882-7.739 c-0.002-0.043-0.005-0.095-0.008-0.146l11.804-0.031C21.141,20.264,21.139,20.314,21.137,20.355z M8.972,15.062 c-0.003-1.769,0.129-3.403,0.219-4.298c0.98-0.271,3.072-0.723,6.065-0.78v-0.03c2.979,0.06,5.063,0.51,6.04,0.779 c0.09,0.895,0.223,2.529,0.219,4.298L8.972,15.062z"/> </g> </g>
</svg>