<?xml version="1.0" encoding="UTF-8"?>
<svg version="1.1" xmlns="http://www.w3.org/2000/svg" width="612" height="612">
<path d="M0 0 C201.96 0 403.92 0 612 0 C612 201.96 612 403.92 612 612 C410.04 612 208.08 612 0 612 C0 410.04 0 208.08 0 0 Z " fill="#89B213" transform="translate(0,0)"/>
<path d="M0 0 C0.66 0 1.32 0 2 0 C2.33 1.32 2.66 2.64 3 4 C6.0745356 3.2236068 6.0745356 3.2236068 8 1 C8.33 4.96 8.66 8.92 9 13 C8.01 11.68 7.02 10.36 6 9 C6.33 12.3 6.66 15.6 7 19 C6.01 18.01 5.02 17.02 4 16 C3.34 16 2.68 16 2 16 C2 15.34 2 14.68 2 14 C1.34 14 0.68 14 0 14 C-3.07692308 8.58461538 -3.07692308 8.58461538 -2.6875 5.625 C-2.460625 5.08875 -2.23375 4.5525 -2 4 C-1.01 5.485 -1.01 5.485 0 7 C0 4.69 0 2.38 0 0 Z " fill="#89B020" transform="translate(387,536)"/>
<path d="M0 0 C0.99 0 1.98 0 3 0 C3.33 1.32 3.66 2.64 4 4 C5.32 3.67 6.64 3.34 8 3 C8 5.64 8 8.28 8 11 C6.68 10.67 5.36 10.34 4 10 C3.01 11.485 3.01 11.485 2 13 C2 12.34 2 11.68 2 11 C0.02 11.99 0.02 11.99 -2 13 C-4.09350689 9.5980513 -4.17942163 6.94727588 -4 3 C-3.34 3 -2.68 3 -2 3 C-1.67 3.66 -1.34 4.32 -1 5 C-0.67 3.35 -0.34 1.7 0 0 Z " fill="#94C11F" transform="translate(139,451)"/>
<path d="M0 0 C0.66 0 1.32 0 2 0 C2.66 2.31 3.32 4.62 4 7 C4.33 5.35 4.66 3.7 5 2 C5.99 2 6.98 2 8 2 C8 4.64 8 7.28 8 10 C4.26513121 10.5745952 0.78706732 11 -3 11 C-4.35439668 8.29120665 -4.06501451 5.99066732 -4 3 C-3.34 3 -2.68 3 -2 3 C-1.67 3.99 -1.34 4.98 -1 6 C-0.67 4.02 -0.34 2.04 0 0 Z " fill="#6F950D" transform="translate(301,259)"/>
<path d="M0 0 C0.66 0 1.32 0 2 0 C2.66 2.97 3.32 5.94 4 9 C4.33 6.69 4.66 4.38 5 2 C5.99 2 6.98 2 8 2 C8 4.97 8 7.94 8 11 C4.71303767 11.79953138 3.28976808 12.09658936 0 11 C0 11.66 0 12.32 0 13 C-0.99 12.67 -1.98 12.34 -3 12 C-3.73046875 9.93359375 -3.73046875 9.93359375 -4.1875 7.4375 C-4.34605469 6.61121094 -4.50460938 5.78492188 -4.66796875 4.93359375 C-4.77753906 4.29550781 -4.88710938 3.65742188 -5 3 C-4.34 3 -3.68 3 -3 3 C-2.34 4.65 -1.68 6.3 -1 8 C-0.67 5.36 -0.34 2.72 0 0 Z " fill="#749C0B" transform="translate(45,242)"/>
<path d="M0 0 C0.99 0.33 1.98 0.66 3 1 C3.22197585 3.10277123 3.42713637 5.20732302 3.625 7.3125 C3.74101563 8.48425781 3.85703125 9.65601563 3.9765625 10.86328125 C4 14 4 14 2 17 C0.68 16.67 -0.64 16.34 -2 16 C-4.27678571 7.96428571 -4.27678571 7.96428571 -3 4 C-2.34 4.66 -1.68 5.32 -1 6 C-0.67 4.02 -0.34 2.04 0 0 Z " fill="#98C425" transform="translate(33,368)"/>
<path d="M0 0 C0.99 0.33 1.98 0.66 3 1 C3 4.3 3 7.6 3 11 C2.34 11 1.68 11 1 11 C1 12.32 1 13.64 1 15 C0.01 15 -0.98 15 -2 15 C-2.66 11.7 -3.32 8.4 -4 5 C-3.01 5 -2.02 5 -1 5 C-0.67 3.35 -0.34 1.7 0 0 Z " fill="#759B10" transform="translate(463,417)"/>
<path d="M0 0 C0.99 0 1.98 0 3 0 C3.05429959 1.74965358 3.09292823 3.49979787 3.125 5.25 C3.14820313 6.22453125 3.17140625 7.1990625 3.1953125 8.203125 C2.99862781 11.0196498 2.44568916 12.60949036 1 15 C0.34 15 -0.32 15 -1 15 C-1.33 12.69 -1.66 10.38 -2 8 C-2.66 8 -3.32 8 -4 8 C-4 6.35 -4 4.7 -4 3 C-3.01 3 -2.02 3 -1 3 C-0.67 2.01 -0.34 1.02 0 0 Z " fill="#96C21F" transform="translate(593,333)"/>
<path d="M0 0 C0.66 0.33 1.32 0.66 2 1 C2.38749213 3.32495277 2.71758117 5.6599583 3 8 C3.33 8.99 3.66 9.98 4 11 C3.34 11 2.68 11 2 11 C2 12.65 2 14.3 2 16 C1.34 16 0.68 16 0 16 C-0.70226141 14.75823305 -1.38629109 13.50614401 -2.0625 12.25 C-2.44535156 11.55390625 -2.82820313 10.8578125 -3.22265625 10.140625 C-4.14804984 7.59230496 -3.95887012 6.50140031 -3 4 C-1.4375 1.75 -1.4375 1.75 0 0 Z " fill="#94C11E" transform="translate(60,80)"/>
<path d="M0 0 C2.65354511 0.97296654 3.79877896 1.65792423 5.25 4.125 C6.64076725 9.45627445 6.33343491 14.66626036 5 20 C4.34 20 3.68 20 3 20 C0.96564469 16.27034861 0 14.33094958 0 10 C0.66 10 1.32 10 2 10 C2.33 10.33 2.66 10.66 3 11 C3 8.69 3 6.38 3 4 C2.01 4 1.02 4 0 4 C0 2.68 0 1.36 0 0 Z " fill="#9DC82A" transform="translate(297,92)"/>
<path d="M0 0 C0.66 0 1.32 0 2 0 C3.25 7.625 3.25 7.625 1 11 C0.54227937 13.73872955 0.54227937 13.73872955 0.375 16.6875 C0.30023438 17.68136719 0.22546875 18.67523438 0.1484375 19.69921875 C0.09945312 20.45847656 0.05046875 21.21773437 0 22 C0.66 22 1.32 22 2 22 C2 20.02 2 18.04 2 16 C2.33 16 2.66 16 3 16 C3 18.64 3 21.28 3 24 C1.68 24 0.36 24 -1 24 C-3.56133056 14.71517672 -3.56133056 14.71517672 -3 10 C-2.01 9.34 -1.02 8.68 0 8 C0.36297936 6.02252878 0.36297936 6.02252878 0.1875 3.875 C0.125625 2.59625 0.06375 1.3175 0 0 Z " fill="#8DB421" transform="translate(155,72)"/>
<path d="M0 0 C3 1 3 1 4 3 C5.32 2.67 6.64 2.34 8 2 C8 4.97 8 7.94 8 11 C5.6568787 10.74438677 3.32156597 10.40729228 1 10 C-0.60725635 6.78548731 -0.05748185 3.56387464 0 0 Z " fill="#94BF1C" transform="translate(474,25)"/>
<path d="M0 0 C0.66 0 1.32 0 2 0 C3.32229189 2.64458379 3.09677194 4.67761301 3.0625 7.625 C3.05347656 8.62789063 3.04445313 9.63078125 3.03515625 10.6640625 C3.02355469 11.43492187 3.01195312 12.20578125 3 13 C1.02 13.99 1.02 13.99 -1 15 C-1.50615298 13.73160474 -2.00469099 12.46016898 -2.5 11.1875 C-2.7784375 10.47980469 -3.056875 9.77210938 -3.34375 9.04296875 C-4 7 -4 7 -4 4 C-3.01 4.33 -2.02 4.66 -1 5 C-0.67 3.35 -0.34 1.7 0 0 Z " fill="#759C0F" transform="translate(328,422)"/>
<path d="M0 0 C0.66 0 1.32 0 2 0 C2 0.99 2 1.98 2 3 C2.66 3 3.32 3 4 3 C5.28571429 11.57142857 5.28571429 11.57142857 4 15 C3.34 15 2.68 15 2 15 C0.7109375 13.3203125 0.7109375 13.3203125 -0.625 11.125 C-1.07101562 10.40570313 -1.51703125 9.68640625 -1.9765625 8.9453125 C-3 7 -3 7 -3 5 C-2.01 4.67 -1.02 4.34 0 4 C0 2.68 0 1.36 0 0 Z " fill="#94C31E" transform="translate(270,337)"/>
<path d="M0 0 C0.66 0 1.32 0 2 0 C3.77830479 5.85794517 4.2674668 9.9795327 3 16 C2.34 16.33 1.68 16.66 1 17 C-2 11.25 -2 11.25 -2 9 C-2.66 9 -3.32 9 -4 9 C-4 8.01 -4 7.02 -4 6 C-2.68 6.33 -1.36 6.66 0 7 C0 4.69 0 2.38 0 0 Z " fill="#97C524" transform="translate(524,298)"/>
<path d="M0 0 C0.99 0 1.98 0 3 0 C3 3.63 3 7.26 3 11 C2.34 11 1.68 11 1 11 C0.67 12.65 0.34 14.3 0 16 C-0.33 14.68 -0.66 13.36 -1 12 C-1.66 12 -2.32 12 -3 12 C-3.33 9.36 -3.66 6.72 -4 4 C-3.01 4.33 -2.02 4.66 -1 5 C-0.67 3.35 -0.34 1.7 0 0 Z " fill="#98C424" transform="translate(537,156)"/>
<path d="M0 0 C0.66 0 1.32 0 2 0 C2.85330338 5.83475015 3.48351814 10.44860651 1 16 C0.34 16 -0.32 16 -1 16 C-1.6708712 14.3767313 -2.33657029 12.75132422 -3 11.125 C-3.37125 10.22007812 -3.7425 9.31515625 -4.125 8.3828125 C-5 6 -5 6 -5 4 C-3.68 4.33 -2.36 4.66 -1 5 C-0.67 3.35 -0.34 1.7 0 0 Z " fill="#9BC526" transform="translate(341,376)"/>
<path d="M0 0 C0.66 0.33 1.32 0.66 2 1 C2.4140625 3.28515625 2.4140625 3.28515625 2.625 6.0625 C2.69976562 6.98160156 2.77453125 7.90070313 2.8515625 8.84765625 C2.92503906 9.91306641 2.92503906 9.91306641 3 11 C2.01 10.67 1.02 10.34 0 10 C-0.19412181 8.52168779 -0.38012131 7.04230684 -0.5625 5.5625 C-0.66691406 4.73878906 -0.77132813 3.91507812 -0.87890625 3.06640625 C-0.91886719 2.38449219 -0.95882813 1.70257813 -1 1 C-0.67 0.67 -0.34 0.34 0 0 Z M-5 3 C-4.34 3 -3.68 3 -3 3 C-1.14223235 6.13498292 -0.79859524 8.37471432 -1 12 C-2.32 12.33 -3.64 12.66 -5 13 C-5 9.7 -5 6.4 -5 3 Z " fill="#719610" transform="translate(504,274)"/>
<path d="M0 0 C0.66 0.33 1.32 0.66 2 1 C2.6328125 3.28515625 2.6328125 3.28515625 3.125 6.0625 C3.29257813 6.98160156 3.46015625 7.90070313 3.6328125 8.84765625 C3.75398437 9.55792969 3.87515625 10.26820313 4 11 C3.01 11.33 2.02 11.66 1 12 C1 13.65 1 15.3 1 17 C0.34 17 -0.32 17 -1 17 C-2.32 13.37 -3.64 9.74 -5 6 C-4.01 6 -3.02 6 -2 6 C-1.67 6.66 -1.34 7.32 -1 8 C-1.020625 6.865625 -1.04125 5.73125 -1.0625 4.5625 C-1 1 -1 1 0 0 Z " fill="#9BC726" transform="translate(169,122)"/>
<path d="M0 0 C0.66 0 1.32 0 2 0 C3.31626692 3.61973402 4 6.09567131 4 10 C3.34 10 2.68 10 2 10 C2.33 11.65 2.66 13.3 3 15 C2.01 15.33 1.02 15.66 0 16 C-0.67408308 14.73308493 -1.33900497 13.46129251 -2 12.1875 C-2.37125 11.47980469 -2.7425 10.77210938 -3.125 10.04296875 C-4 8 -4 8 -4 5 C-2.66666667 5 -1.33333333 5 0 5 C0 3.35 0 1.7 0 0 Z " fill="#99C525" transform="translate(520,526)"/>
<path d="M0 0 C0.99 0.33 1.98 0.66 3 1 C3.765625 2.70703125 3.765625 2.70703125 4.25 4.8125 C4.50523437 5.84310547 4.50523437 5.84310547 4.765625 6.89453125 C5.13886878 10.24750458 4.05563724 12.83308827 3 16 C2.34 15.67 1.68 15.34 1 15 C1 13.68 1 12.36 1 11 C0.360625 10.7525 -0.27875 10.505 -0.9375 10.25 C-3 9 -3 9 -3.75 6.875 C-3.8325 6.25625 -3.915 5.6375 -4 5 C-2.68 5.33 -1.36 5.66 0 6 C0 4.02 0 2.04 0 0 Z " fill="#98C423" transform="translate(575,419)"/>
<path d="M0 0 C0.66 0 1.32 0 2 0 C4.10428384 5.12919186 4.21755666 9.5610835 4 15 C3.01 15.33 2.02 15.66 1 16 C-3 9.5 -3 9.5 -3 5 C-2.34 5 -1.68 5 -1 5 C-0.67 5.66 -0.34 6.32 0 7 C0 4.69 0 2.38 0 0 Z " fill="#98C522" transform="translate(84,334)"/>
<path d="M0 0 C0.99 0.33 1.98 0.66 3 1 C4.51708428 10.41002278 4.51708428 10.41002278 2 15 C1.34 15 0.68 15 0 15 C-4 8.5 -4 8.5 -4 4 C-3.01 4 -2.02 4 -1 4 C-0.67 4.66 -0.34 5.32 0 6 C0 4.02 0 2.04 0 0 Z " fill="#99C522" transform="translate(576,268)"/>
<path d="M0 0 C0.99 0 1.98 0 3 0 C3.19401633 1.81181405 3.38004375 3.62448532 3.5625 5.4375 C3.66691406 6.44683594 3.77132812 7.45617187 3.87890625 8.49609375 C3.93884766 9.73552734 3.93884766 9.73552734 4 11 C3.67 11.33 3.34 11.66 3 12 C3 13.32 3 14.64 3 16 C2.01 16 1.02 16 0 16 C-0.33 13.69 -0.66 11.38 -1 9 C-1.66 9 -2.32 9 -3 9 C-3 7.68 -3 6.36 -3 5 C-2.34 5 -1.68 5 -1 5 C-0.67 5.66 -0.34 6.32 0 7 C0 4.69 0 2.38 0 0 Z " fill="#97C520" transform="translate(33,228)"/>
<path d="M0 0 C0.66 0.33 1.32 0.66 2 1 C2 1.66 2 2.32 2 3 C3.32 3.33 4.64 3.66 6 4 C6 6.64 6 9.28 6 12 C3.66666667 12 1.33333333 12 -1 12 C-1.02687279 10.18757948 -1.04633715 8.37504767 -1.0625 6.5625 C-1.07410156 5.55316406 -1.08570312 4.54382813 -1.09765625 3.50390625 C-1 1 -1 1 0 0 Z " fill="#96C222" transform="translate(72,169)"/>
<path d="M0 0 C0.99 0.33 1.98 0.66 3 1 C4.1577506 4.47325181 4.06866652 7.36067448 4 11 C3.34 11 2.68 11 2 11 C2 12.32 2 13.64 2 15 C1.34 15 0.68 15 0 15 C-3.125 8.375 -3.125 8.375 -2 5 C-1.34 5.33 -0.68 5.66 0 6 C0 4.02 0 2.04 0 0 Z " fill="#7DA416" transform="translate(211,185)"/>
<path d="M0 0 C0.99 0 1.98 0 3 0 C3.33 3.63 3.66 7.26 4 11 C2.02 11.33 0.04 11.66 -2 12 C-3.49821059 8.62902617 -4 6.79557881 -4 3 C-3.34 3 -2.68 3 -2 3 C-2 4.32 -2 5.64 -2 7 C-1.34 7 -0.68 7 0 7 C0 4.69 0 2.38 0 0 Z " fill="#90BA17" transform="translate(284,241)"/>
<path d="M0 0 C0.99 0.33 1.98 0.66 3 1 C3.33 3.97 3.66 6.94 4 10 C3.34 10 2.68 10 2 10 C2 11.65 2 13.3 2 15 C1.34 15 0.68 15 0 15 C-0.50615298 13.73160474 -1.00469099 12.46016898 -1.5 11.1875 C-1.7784375 10.47980469 -2.056875 9.77210938 -2.34375 9.04296875 C-3 7 -3 7 -3 4 C-2.34 4 -1.68 4 -1 4 C-0.67 2.68 -0.34 1.36 0 0 Z " fill="#6D9408" transform="translate(315,123)"/>
<path d="M0 0 C0.66 0 1.32 0 2 0 C3.22485812 2.44971624 3.16722808 4.14234461 3.1875 6.875 C3.20167969 7.73867188 3.21585937 8.60234375 3.23046875 9.4921875 C2.98859252 12.1241288 2.32983541 13.73980544 1 16 C0.34 16 -0.32 16 -1 16 C-2.31626692 12.38026598 -3 9.90432869 -3 6 C-2.34 6 -1.68 6 -1 6 C-0.67 4.02 -0.34 2.04 0 0 Z " fill="#99C623" transform="translate(308,510)"/>
<path d="M0 0 C0.99 0.33 1.98 0.66 3 1 C3.33 4.3 3.66 7.6 4 11 C3.34 11 2.68 11 2 11 C2 12.32 2 13.64 2 15 C1.34 15 0.68 15 0 15 C-0.67154933 13.71086513 -1.33708859 12.41859796 -2 11.125 C-2.37125 10.40570312 -2.7425 9.68640625 -3.125 8.9453125 C-4 7 -4 7 -4 5 C-2.66666667 5 -1.33333333 5 0 5 C0 3.35 0 1.7 0 0 Z " fill="#98C522" transform="translate(12,577)"/>
<path d="M0 0 C0.66 0 1.32 0 2 0 C2.33 1.65 2.66 3.3 3 5 C3.33 3.68 3.66 2.36 4 1 C5.32 1 6.64 1 8 1 C8 3.64 8 6.28 8 9 C5.69 9.33 3.38 9.66 1 10 C-0.1577506 6.52674819 -0.06866652 3.63932552 0 0 Z " fill="#739A0C" transform="translate(500,372)"/>
<path d="M0 0 C0.66 0 1.32 0 2 0 C3.60355101 3.50776784 4.22036864 6.14354879 4 10 C2.68 9.67 1.36 9.34 0 9 C0 9.99 0 10.98 0 12 C-0.66 12 -1.32 12 -2 12 C-3.60355101 8.49223216 -4.22036864 5.85645121 -4 2 C-3.67 2.66 -3.34 3.32 -3 4 C-2.34 3.67 -1.68 3.34 -1 3 C-0.67 2.01 -0.34 1.02 0 0 Z " fill="#94C01F" transform="translate(162,320)"/>
<path d="M0 0 C0.66 0 1.32 0 2 0 C5.43023256 8.23255814 5.43023256 8.23255814 4 13 C4 13.66 4 14.32 4 15 C-0.02550319 13.6581656 -0.88285636 11.5772427 -3 8 C-3 7.34 -3 6.68 -3 6 C-2.01 6 -1.02 6 0 6 C0 4.02 0 2.04 0 0 Z " fill="#98C522" transform="translate(182,226)"/>
<path d="M0 0 C0.66 0 1.32 0 2 0 C3.31626692 3.61973402 4 6.09567131 4 10 C3.34 10 2.68 10 2 10 C2 11.65 2 13.3 2 15 C1.34 15 0.68 15 0 15 C-1.32 11.7 -2.64 8.4 -4 5 C-3.01 5 -2.02 5 -1 5 C-0.67 3.35 -0.34 1.7 0 0 Z " fill="#9AC724" transform="translate(174,563)"/>
<path d="M0 0 C0.66 0 1.32 0 2 0 C2 2.97 2 5.94 2 9 C1.01 9 0.02 9 -1 9 C-1.33 9.99 -1.66 10.98 -2 12 C-2.99 11.67 -3.98 11.34 -5 11 C-5 7.7 -5 4.4 -5 1 C-4.34 1 -3.68 1 -3 1 C-2.67 2.65 -2.34 4.3 -2 6 C-1.34 4.02 -0.68 2.04 0 0 Z " fill="#97C41F" transform="translate(296,287)"/>
<path d="M0 0 C0.66 0 1.32 0 2 0 C2.66 3.3 3.32 6.6 4 10 C3.34 10 2.68 10 2 10 C2.33 11.65 2.66 13.3 3 15 C2.01 15 1.02 15 0 15 C-1.72264494 11.70450534 -3.29445932 8.66881155 -4 5 C-3.01 5 -2.02 5 -1 5 C-1 5.99 -1 6.98 -1 8 C-0.34 8 0.32 8 1 8 C0.67 5.36 0.34 2.72 0 0 Z " fill="#99C625" transform="translate(185,176)"/>
<path d="M0 0 C0.66 0 1.32 0 2 0 C2.66 3.3 3.32 6.6 4 10 C3.34 10 2.68 10 2 10 C-0.09350689 6.5980513 -0.17942163 3.94727588 0 0 Z M-4 4 C-1.21786577 5.02011588 -0.18961687 5.63074609 1.1875 8.3125 C1.95949101 10.86600874 2.54944539 13.37176476 3 16 C2.34 16 1.68 16 1 16 C-0.2890625 14.390625 -0.2890625 14.390625 -1.625 12.25 C-2.07101563 11.55390625 -2.51703125 10.8578125 -2.9765625 10.140625 C-4 8 -4 8 -4 4 Z " fill="#97C422" transform="translate(60,38)"/>
<path d="M0 0 C2.35448165 2.55068845 2.98327924 3.71017358 3.1875 7.25 C3.125625 8.1575 3.06375 9.065 3 10 C2.34 10 1.68 10 1 10 C1 9.34 1 8.68 1 8 C0.34 8 -0.32 8 -1 8 C-1 9.32 -1 10.64 -1 12 C-1.66 12 -2.32 12 -3 12 C-3.99 9.03 -4.98 6.06 -6 3 C-4.02 3 -2.04 3 0 3 C0 2.01 0 1.02 0 0 Z " fill="#6C920D" transform="translate(26,588)"/>
<path d="M0 0 C0.66 0 1.32 0 2 0 C2.05449838 1.72880982 2.09301688 3.45812712 2.125 5.1875 C2.14820313 6.15042969 2.17140625 7.11335938 2.1953125 8.10546875 C1.9913544 11.12812778 1.26874632 13.26769985 0 16 C-0.66 16 -1.32 16 -2 16 C-2.66 12.04 -3.32 8.08 -4 4 C-3.34 4 -2.68 4 -2 4 C-2 4.66 -2 5.32 -2 6 C-1.34 6 -0.68 6 0 6 C0 4.02 0 2.04 0 0 Z " fill="#6E9507" transform="translate(155,314)"/>
<path d="M0 0 C0.99 0.33 1.98 0.66 3 1 C3.75612577 6.23471686 4.2063366 10.77254141 3 16 C2.34 16 1.68 16 1 16 C0.32845067 14.71086513 -0.33708859 13.41859796 -1 12.125 C-1.37125 11.40570313 -1.7425 10.68640625 -2.125 9.9453125 C-3 8 -3 8 -3 6 C-2.34 6 -1.68 6 -1 6 C-1 6.66 -1 7.32 -1 8 C-0.34 8 0.32 8 1 8 C0.67 5.36 0.34 2.72 0 0 Z " fill="#97C421" transform="translate(87,248)"/>
<path d="M0 0 C3 1 3 1 4.1875 3.3125 C5 6 5 6 5 10 C4.34 10 3.68 10 3 10 C3 10.66 3 11.32 3 12 C3.66 12 4.32 12 5 12 C5 12.99 5 13.98 5 15 C4.01 15 3.02 15 2 15 C-2 8.25 -2 8.25 -2 6 C-1.34 6 -0.68 6 0 6 C0 6.66 0 7.32 0 8 C0.66 8 1.32 8 2 8 C1.67 7.4225 1.34 6.845 1 6.25 C0 4 0 4 0 0 Z " fill="#9CC724" transform="translate(554,72)"/>
<path d="M0 0 C0.66 0 1.32 0 2 0 C3.35439668 2.70879335 3.06501451 5.00933268 3 8 C3.66 8 4.32 8 5 8 C5 5.69 5 3.38 5 1 C5.99 1 6.98 1 8 1 C8 3.97 8 6.94 8 10 C6.02 10 4.04 10 2 10 C0.39644899 6.49223216 -0.22036864 3.85645121 0 0 Z " fill="#94C11F" transform="translate(406,592)"/>
<path d="M0 0 C0.99 0.33 1.98 0.66 3 1 C3.73046875 3.06640625 3.73046875 3.06640625 4.1875 5.5625 C4.34605469 6.38878906 4.50460937 7.21507812 4.66796875 8.06640625 C4.77753906 8.70449219 4.88710938 9.34257813 5 10 C4.34 10 3.68 10 3 10 C3.33 11.98 3.66 13.96 4 16 C1 15 1 15 -0.75 12.125 C-2 9 -2 9 -1 6 C-0.34 6.66 0.32 7.32 1 8 C0.67 5.36 0.34 2.72 0 0 Z " fill="#6C9306" transform="translate(346,556)"/>
<path d="M0 0 C0.99 0 1.98 0 3 0 C4.31626692 3.61973402 5 6.09567131 5 10 C3 10 1 10 -1 10 C-3 7 -3 7 -3 4 C-2.34 3.67 -1.68 3.34 -1 3 C-0.67 2.01 -0.34 1.02 0 0 Z " fill="#95C420" transform="translate(77,544)"/>
<path d="M0 0 C2 1 2 1 2.703125 3.07421875 C3.80548685 8.3419336 4.39459075 11.94475286 2 17 C1.34 17 0.68 17 0 17 C0 15.35 0 13.7 0 12 C-0.66 12 -1.32 12 -2 12 C-1.34 8.04 -0.68 4.08 0 0 Z " fill="#98C424" transform="translate(328,98)"/>
<path d="M0 0 C0.66 0.99 1.32 1.98 2 3 C1.34 3 0.68 3 0 3 C0 4.32 0 5.64 0 7 C0.99 7 1.98 7 3 7 C3.33 10.3 3.66 13.6 4 17 C3.34 15.68 2.68 14.36 2 13 C1.34 13 0.68 13 0 13 C-0.33 13.66 -0.66 14.32 -1 15 C-2.60355101 11.49223216 -3.22036864 8.85645121 -3 5 C-2.34 5 -1.68 5 -1 5 C-0.67 3.35 -0.34 1.7 0 0 Z " fill="#8EB822" transform="translate(297,89)"/>
<path d="M0 0 C0.99 0 1.98 0 3 0 C3 1.98 3 3.96 3 6 C3.66 6 4.32 6 5 6 C5 4.68 5 3.36 5 2 C5.99 2 6.98 2 8 2 C8 4.64 8 7.28 8 10 C6.35 10.33 4.7 10.66 3 11 C2.49384702 9.73160474 1.99530901 8.46016898 1.5 7.1875 C1.2215625 6.47980469 0.943125 5.77210938 0.65625 5.04296875 C0 3 0 3 0 0 Z " fill="#96BF20" transform="translate(318,586)"/>
<path d="M0 0 C2.3385104 3.50776561 2.77589301 5.81666944 3 10 C1.6875 11.75 1.6875 11.75 0 13 C-0.99 14.485 -0.99 14.485 -2 16 C-2.66 16 -3.32 16 -4 16 C-4 13.36 -4 10.72 -4 8 C-2.68 8 -1.36 8 0 8 C0 5.36 0 2.72 0 0 Z " fill="#94C01F" transform="translate(321,416)"/>
<path d="M0 0 C0.66 0 1.32 0 2 0 C4.11912545 4.2382509 3.25196473 9.11812346 2 13.5 C1.505 14.7375 1.505 14.7375 1 16 C0.34 16 -0.32 16 -1 16 C-1.50615298 14.73160474 -2.00469099 13.46016898 -2.5 12.1875 C-2.7784375 11.47980469 -3.056875 10.77210938 -3.34375 10.04296875 C-4 8 -4 8 -4 5 C-3.01 5.33 -2.02 5.66 -1 6 C-1 7.32 -1 8.64 -1 10 C-0.34 10 0.32 10 1 10 C0.67 6.7 0.34 3.4 0 0 Z " fill="#98C623" transform="translate(484,158)"/>
<path d="M0 0 C0.66 0 1.32 0 2 0 C3.20272819 2.40545638 3.10071472 3.94996953 3.0625 6.625 C3.05347656 7.44226563 3.04445313 8.25953125 3.03515625 9.1015625 C3.02355469 9.72804688 3.01195312 10.35453125 3 11 C0.92446352 11.5534764 -0.84365964 12 -3 12 C-4.60725635 8.78548731 -4.05748185 5.56387464 -4 2 C-2 4 -2 4 -1.875 7.125 C-1.91625 8.07375 -1.9575 9.0225 -2 10 C-1.34 10 -0.68 10 0 10 C0 6.7 0 3.4 0 0 Z " fill="#98C51F" transform="translate(408,102)"/>
<path d="M0 0 C0.66 0.33 1.32 0.66 2 1 C2.4140625 3.28515625 2.4140625 3.28515625 2.625 6.0625 C2.69976562 6.98160156 2.77453125 7.90070313 2.8515625 8.84765625 C2.90054687 9.55792969 2.94953125 10.26820313 3 11 C0.125 11.625 0.125 11.625 -3 12 C-5 10 -5 10 -5.125 6.875 C-5.08375 5.92625 -5.0425 4.9775 -5 4 C-4.34 4 -3.68 4 -3 4 C-2.34 5.65 -1.68 7.3 -1 9 C-1.020625 7.700625 -1.04125 6.40125 -1.0625 5.0625 C-1.08399454 3.70834367 -1.07148199 2.35243917 -1 1 C-0.67 0.67 -0.34 0.34 0 0 Z " fill="#99C625" transform="translate(443,484)"/>
<path d="M0 0 C0.66 0.33 1.32 0.66 2 1 C3.10850248 5.66534956 3.34383934 10.37122006 2 15 C1.01 15 0.02 15 -1 15 C-1.66 11.7 -2.32 8.4 -3 5 C-2.01 5.495 -2.01 5.495 -1 6 C-0.67 4.02 -0.34 2.04 0 0 Z " fill="#9AC625" transform="translate(298,374)"/>
<path d="M0 0 C0.99 0 1.98 0 3 0 C3.33 3.3 3.66 6.6 4 10 C3.01 10.495 3.01 10.495 2 11 C2 12.32 2 13.64 2 15 C1.34 15 0.68 15 0 15 C-3 8.375 -3 8.375 -3 5 C-2.34 5 -1.68 5 -1 5 C-0.67 5.99 -0.34 6.98 0 8 C0 5.36 0 2.72 0 0 Z " fill="#698F07" transform="translate(348,53)"/>
<path d="M0 0 C0.66 0 1.32 0 2 0 C2 2.97 2 5.94 2 9 C1.34 9 0.68 9 0 9 C0 10.65 0 12.3 0 14 C-0.66 14 -1.32 14 -2 14 C-2.33 12.02 -2.66 10.04 -3 8 C-3.66 8 -4.32 8 -5 8 C-5 6.35 -5 4.7 -5 3 C-4.01 3 -3.02 3 -2 3 C-2 4.65 -2 6.3 -2 8 C-1.34 8 -0.68 8 0 8 C0 5.36 0 2.72 0 0 Z " fill="#9AC724" transform="translate(394,48)"/>
<path d="M0 0 C0.66 0 1.32 0 2 0 C4.66514806 10.37357631 4.66514806 10.37357631 2 16 C1.34 16 0.68 16 0 16 C-3.07692308 9.6 -3.07692308 9.6 -2.6875 6.5625 C-2.460625 6.046875 -2.23375 5.53125 -2 5 C-1.01 6.485 -1.01 6.485 0 8 C0 5.36 0 2.72 0 0 Z " fill="#699005" transform="translate(395,539)"/>
<path d="M0 0 C0.33 0 0.66 0 1 0 C1.33 4.29 1.66 8.58 2 13 C1.34 13 0.68 13 0 13 C0 13.99 0 14.98 0 16 C-0.66 16 -1.32 16 -2 16 C-3.25664978 13.09399739 -4 11.20395416 -4 8 C-3.34 8 -2.68 8 -2 8 C-1.34 5.36 -0.68 2.72 0 0 Z " fill="#98C421" transform="translate(38,536)"/>
<path d="M0 0 C0.66 0 1.32 0 2 0 C4.48887372 4.68493876 3.85687773 7.9444214 3 13 C2.01 13 1.02 13 0 13 C-1.75 10.75 -1.75 10.75 -3 8 C-2.6875 5.6875 -2.6875 5.6875 -2 4 C-1.01 5.485 -1.01 5.485 0 7 C0 4.69 0 2.38 0 0 Z " fill="#9BC726" transform="translate(387,536)"/>
<path d="M0 0 C0.66 0 1.32 0 2 0 C3.49821059 3.37097383 4 5.20442119 4 9 C3.34 9 2.68 9 2 9 C2.33 10.65 2.66 12.3 3 14 C0 13 0 13 -1.6875 10.125 C-3 7 -3 7 -3 4 C-2.34 4 -1.68 4 -1 4 C-0.67 4.66 -0.34 5.32 0 6 C0 4.02 0 2.04 0 0 Z " fill="#9AC724" transform="translate(249,477)"/>
<path d="M0 0 C0.66 0 1.32 0 2 0 C2.33951619 1.56116819 2.67132544 3.12401338 3 4.6875 C3.185625 5.55761719 3.37125 6.42773438 3.5625 7.32421875 C3.98972047 9.93712964 4.07616201 12.35813038 4 15 C3.01 15 2.02 15 1 15 C-3 8.25 -3 8.25 -3 6 C-2.01 6.33 -1.02 6.66 0 7 C0 6.01 0 5.02 0 4 C0 2.68 0 1.36 0 0 Z " fill="#698F07" transform="translate(199,170)"/>
<path d="M0 0 C0.66 0 1.32 0 2 0 C2.66 2.31 3.32 4.62 4 7 C4.66 4.69 5.32 2.38 6 0 C6.33 0 6.66 0 7 0 C7.33 2.97 7.66 5.94 8 9 C5.69 9 3.38 9 1 9 C0.67 6.03 0.34 3.06 0 0 Z " fill="#99C623" transform="translate(119,162)"/>
<path d="M0 0 C0.33 0 0.66 0 1 0 C1.33 3.63 1.66 7.26 2 11 C1.34 10.67 0.68 10.34 0 10 C0 9.01 0 8.02 0 7 C-0.66 7 -1.32 7 -2 7 C-1.67 9.31 -1.34 11.62 -1 14 C-2.625 12.4375 -2.625 12.4375 -4 10 C-3.23299545 6.02552186 -2.24781532 3.37172297 0 0 Z " fill="#89AF26" transform="translate(347,51)"/>
<path d="M0 0 C2 2 2 2 2.5 5.0625 C2.665 6.031875 2.83 7.00125 3 8 C3.66 8.33 4.32 8.66 5 9 C5.33 6.69 5.66 4.38 6 2 C6.33 2 6.66 2 7 2 C7 4.31 7 6.62 7 9 C5.02 9.99 5.02 9.99 3 11 C3 11.66 3 12.32 3 13 C2.34 13 1.68 13 1 13 C-0.10228696 8.59085217 -0.07654536 4.51617599 0 0 Z " fill="#88AF21" transform="translate(483,136)"/>
<path d="M0 0 C0.99 0.495 0.99 0.495 2 1 C2.33333333 2.66666667 2.66666667 4.33333333 3 6 C3.66 6.33 4.32 6.66 5 7 C5.4140625 9.06640625 5.4140625 9.06640625 5.625 11.5625 C5.69976562 12.38878906 5.77453125 13.21507812 5.8515625 14.06640625 C5.90054688 14.70449219 5.94953125 15.34257812 6 16 C4.5 14.6875 4.5 14.6875 3 13 C3 12.01 3 11.02 3 10 C2.34 10 1.68 10 1 10 C-0.1577506 6.52674819 -0.06866652 3.63932552 0 0 Z " fill="#9CC925" transform="translate(210,214)"/>
<path d="M0 0 C0.66 0.33 1.32 0.66 2 1 C2.34375 2.92578125 2.34375 2.92578125 2.5 5.3125 C2.72437865 8.70622701 3.31526681 11.03133709 5 14 C4.01 14 3.02 14 2 14 C1.34 11.36 0.68 8.72 0 6 C-1.32 6 -2.64 6 -4 6 C-3.0022242 3.00667261 -2.2477975 2.05233685 0 0 Z " fill="#89AF24" transform="translate(217,512)"/>
<path d="M0 0 C2 2 2 2 2.1953125 4.1640625 C2.16050781 5.38222656 2.16050781 5.38222656 2.125 6.625 C2.10695313 7.44226563 2.08890625 8.25953125 2.0703125 9.1015625 C2.04710937 9.72804688 2.02390625 10.35453125 2 11 C1.01 11 0.02 11 -1 11 C-1.02688151 9.35425434 -1.04634123 7.70838587 -1.0625 6.0625 C-1.07410156 5.14597656 -1.08570313 4.22945312 -1.09765625 3.28515625 C-1 1 -1 1 0 0 Z " fill="#9BC522" transform="translate(564,508)"/>
<path d="M0 0 C0.99 0 1.98 0 3 0 C3 3.3 3 6.6 3 10 C2.01 10 1.02 10 0 10 C0 6.7 0 3.4 0 0 Z " fill="#98C526" transform="translate(325,414)"/>
<path d="M0 0 C0.99 0.33 1.98 0.66 3 1 C3.33 3.97 3.66 6.94 4 10 C3.01 10 2.02 10 1 10 C0.63883954 8.5225254 0.28624952 7.04295325 -0.0625 5.5625 C-0.25972656 4.73878906 -0.45695313 3.91507813 -0.66015625 3.06640625 C-0.82837891 2.04353516 -0.82837891 2.04353516 -1 1 C-0.67 0.67 -0.34 0.34 0 0 Z " fill="#688E06" transform="translate(10,526)"/>
<path d="M0 0 C0.66 0 1.32 0 2 0 C3.28446919 2.56893838 3.32977144 4.76576337 3.5625 7.625 C3.64628906 8.62789063 3.73007812 9.63078125 3.81640625 10.6640625 C3.87699219 11.43492187 3.93757812 12.20578125 4 13 C3.01 12.34 2.02 11.68 1 11 C0.48828125 8.3984375 0.48828125 8.3984375 0.3125 5.375 C0.24675781 4.37210937 0.18101562 3.36921875 0.11328125 2.3359375 C0.07589844 1.56507813 0.03851562 0.79421875 0 0 Z " fill="#88AF24" transform="translate(558,459)"/>
<path d="M0 0 C0.66 0 1.32 0 2 0 C2.33692785 1.60341555 2.66941093 3.20776555 3 4.8125 C3.185625 5.70582031 3.37125 6.59914063 3.5625 7.51953125 C4 10 4 10 4 13 C1.76362469 10.76362469 1.16152029 8.90380073 0 6 C-0.66 5.34 -1.32 4.68 -2 4 C-1.34 2.68 -0.68 1.36 0 0 Z " fill="#86AC22" transform="translate(168,272)"/>
<path d="M0 0 C0.99 0.33 1.98 0.66 3 1 C3.33 3.97 3.66 6.94 4 10 C3.01 9.67 2.02 9.34 1 9 C0.67 6.03 0.34 3.06 0 0 Z " fill="#96C320" transform="translate(114,163)"/>
<path d="M0 0 C0.99 0.33 1.98 0.66 3 1 C3 3.97 3 6.94 3 10 C2.01 9.67 1.02 9.34 0 9 C0 6.03 0 3.06 0 0 Z " fill="#96C41E" transform="translate(66,172)"/>
<path d="M0 0 C0.66 0 1.32 0 2 0 C2.99 2.97 3.98 5.94 5 9 C4.01 9.33 3.02 9.66 2 10 C-0.09350689 6.5980513 -0.17942163 3.94727588 0 0 Z " fill="#98C522" transform="translate(75,448)"/>
<path d="M0 0 C0.99 0 1.98 0 3 0 C3.33 3.63 3.66 7.26 4 11 C3.34 11 2.68 11 2 11 C0.19769832 7.17010894 -0.19622241 4.21878192 0 0 Z " fill="#99C623" transform="translate(501,432)"/>
<path d="M0 0 C0.33 0 0.66 0 1 0 C1 3.63 1 7.26 1 11 C0.01 11 -0.98 11 -2 11 C-1.85957123 9.35369672 -1.71250671 7.70795821 -1.5625 6.0625 C-1.48128906 5.14597656 -1.40007812 4.22945313 -1.31640625 3.28515625 C-1 1 -1 1 0 0 Z " fill="#96C227" transform="translate(175,421)"/>
<path d="M0 0 C0.99 0 1.98 0 3 0 C3.66 3.63 4.32 7.26 5 11 C4.01 11.495 4.01 11.495 3 12 C2.49440092 10.56445975 1.9957251 9.1264798 1.5 7.6875 C1.2215625 6.88699219 0.943125 6.08648437 0.65625 5.26171875 C0 3 0 3 0 0 Z " fill="#9AC725" transform="translate(189,376)"/>
<path d="M0 0 C0.99 0 1.98 0 3 0 C3 3.3 3 6.6 3 10 C2.34 10 1.68 10 1 10 C-0.1577506 6.52674819 -0.06866652 3.63932552 0 0 Z " fill="#668C06" transform="translate(436,345)"/>
<path d="M0 0 C4.04648443 1.34882814 4.95502599 3.34826069 7 7 C6.67 7.99 6.34 8.98 6 10 C5.01 9.67 4.02 9.34 3 9 C1.5841351 6.08961104 0.70077733 3.153498 0 0 Z " fill="#98C723" transform="translate(416,307)"/>
<path d="M0 0 C0.96661363 3.12180401 0.98988909 5.52083795 0.5625 8.75 C0.46066406 9.54921875 0.35882813 10.3484375 0.25390625 11.171875 C0.12822266 12.07679688 0.12822266 12.07679688 0 13 C-0.66 12.67 -1.32 12.34 -2 12 C-2.73075648 9.6859378 -3.40138258 7.35171131 -4 5 C-3.01 4.67 -2.02 4.34 -1 4 C-0.26676204 1.98491642 -0.26676204 1.98491642 0 0 Z " fill="#8BB323" transform="translate(252,160)"/>
<path d="M0 0 C0.99 0.33 1.98 0.66 3 1 C3.33 3.97 3.66 6.94 4 10 C3.34 10 2.68 10 2 10 C0.39644899 6.49223216 -0.22036864 3.85645121 0 0 Z " fill="#98C522" transform="translate(563,147)"/>
<path d="M0 0 C0.99 0 1.98 0 3 0 C3.66 3.63 4.32 7.26 5 11 C4.01 10.67 3.02 10.34 2 10 C1.34 6.7 0.68 3.4 0 0 Z " fill="#6C9208" transform="translate(150,88)"/>
<path d="M0 0 C0.66 0 1.32 0 2 0 C2.66 3.3 3.32 6.6 4 10 C3.01 10 2.02 10 1 10 C0.67 6.7 0.34 3.4 0 0 Z " fill="#98C522" transform="translate(507,59)"/>
<path d="M0 0 C0.99 0 1.98 0 3 0 C3 3.63 3 7.26 3 11 C-0.317124 6.577168 -0.30466674 5.28089024 0 0 Z " fill="#86AB27" transform="translate(70,561)"/>
<path d="M0 0 C2.02350324 3.03525486 2.32124018 4.19426202 2.625 7.6875 C2.69976562 8.49574219 2.77453125 9.30398438 2.8515625 10.13671875 C2.90054687 10.75160156 2.94953125 11.36648438 3 12 C0.37482727 9.75590073 -0.42089541 8.30528247 -0.75 4.875 C-0.8325 3.59625 -0.915 2.3175 -1 1 C-0.67 0.67 -0.34 0.34 0 0 Z " fill="#89AE28" transform="translate(268,557)"/>
<path d="M0 0 C0.99 0 1.98 0 3 0 C3 3.3 3 6.6 3 10 C0 7 0 7 -0.1875 3.3125 C-0.125625 2.219375 -0.06375 1.12625 0 0 Z " fill="#99C423" transform="translate(189,556)"/>
<path d="M0 0 C0.66 0 1.32 0 2 0 C2 3.3 2 6.6 2 10 C1.34 10 0.68 10 0 10 C-1.36952673 7.26094655 -1.12621361 5.02912668 -1 2 C-0.67 1.34 -0.34 0.68 0 0 Z " fill="#99C522" transform="translate(374,416)"/>
<path d="M0 0 C0.66 0 1.32 0 2 0 C2.50403768 1.29009643 3.00309926 2.58213789 3.5 3.875 C3.7784375 4.59429687 4.056875 5.31359375 4.34375 6.0546875 C5 8 5 8 5 10 C2 9 2 9 0.8125 6.6875 C0 4 0 4 0 0 Z " fill="#6B910A" transform="translate(98,388)"/>
<path d="M0 0 C0.99 0 1.98 0 3 0 C3 3.3 3 6.6 3 10 C2.34 10 1.68 10 1 10 C0.67 6.7 0.34 3.4 0 0 Z " fill="#6B9408" transform="translate(247,379)"/>
<path d="M0 0 C0.99 0 1.98 0 3 0 C3.33 2.97 3.66 5.94 4 9 C3.01 8.67 2.02 8.34 1 8 C0.67 5.36 0.34 2.72 0 0 Z " fill="#97C420" transform="translate(236,371)"/>
<path d="M0 0 C0.99 0.33 1.98 0.66 3 1 C3.33 3.97 3.66 6.94 4 10 C3.34 10 2.68 10 2 10 C-0.09350689 6.5980513 -0.17942163 3.94727588 0 0 Z " fill="#99C624" transform="translate(419,301)"/>
<path d="M0 0 C0.99 0 1.98 0 3 0 C3.33 1.98 3.66 3.96 4 6 C4.66 6 5.32 6 6 6 C6 7.65 6 9.3 6 11 C5.34 11 4.68 11 4 11 C3.67 8.69 3.34 6.38 3 4 C2.34 4 1.68 4 1 4 C0.67 2.68 0.34 1.36 0 0 Z " fill="#9BC726" transform="translate(205,218)"/>
<path d="M0 0 C1.9375 0.5 1.9375 0.5 4 2 C4.68790422 4.69658452 4.81946464 7.2017019 5 10 C1.64085078 7.76056718 1.18318364 6.73157917 0 3 C0 2.01 0 1.02 0 0 Z " fill="#9CC624" transform="translate(395,208)"/>
<path d="M0 0 C0.99 0.33 1.98 0.66 3 1 C3.94921875 3.06640625 3.94921875 3.06640625 4.6875 5.5625 C4.93886719 6.38878906 5.19023438 7.21507812 5.44921875 8.06640625 C5.63097656 8.70449219 5.81273437 9.34257812 6 10 C5.01 10 4.02 10 3 10 C2.01 6.7 1.02 3.4 0 0 Z " fill="#9BC827" transform="translate(546,176)"/>
<path d="M0 0 C0.66 0 1.32 0 2 0 C2 2.97 2 5.94 2 9 C1.01 9 0.02 9 -1 9 C-1.09765625 2.84765625 -1.09765625 2.84765625 -1 1 C-0.67 0.67 -0.34 0.34 0 0 Z " fill="#6C9306" transform="translate(258,166)"/>
<path d="M0 0 C0.66 0 1.32 0 2 0 C2.99 3.3 3.98 6.6 5 10 C4.01 10 3.02 10 2 10 C0.39644899 6.49223216 -0.22036864 3.85645121 0 0 Z " fill="#98C623" transform="translate(221,67)"/>
<path d="M0 0 C0.66 0 1.32 0 2 0 C2.66 2.97 3.32 5.94 4 9 C3.01 9 2.02 9 1 9 C1 7.35 1 5.7 1 4 C0.34 4 -0.32 4 -1 4 C-0.67 2.68 -0.34 1.36 0 0 Z " fill="#98C521" transform="translate(503,62)"/>
<path d="M0 0 C0.99 0 1.98 0 3 0 C3.50615298 1.26839526 4.00469099 2.53983102 4.5 3.8125 C4.91765625 4.87404297 4.91765625 4.87404297 5.34375 5.95703125 C6 8 6 8 6 11 C5.34 11 4.68 11 4 11 C3.32880451 9.5437455 2.66318193 8.08492133 2 6.625 C1.62875 5.81289063 1.2575 5.00078125 0.875 4.1640625 C0 2 0 2 0 0 Z " fill="#6A9006" transform="translate(332,40)"/>
<path d="M0 0 C0.66 0 1.32 0 2 0 C2 2.97 2 5.94 2 9 C1.01 9.495 1.01 9.495 0 10 C-1.36952673 7.26094655 -1.12621361 5.02912668 -1 2 C-0.67 1.34 -0.34 0.68 0 0 Z " fill="#99C224" transform="translate(195,558)"/>
<path d="M0 0 C0.66 0 1.32 0 2 0 C2.50403768 1.29009643 3.00309926 2.58213789 3.5 3.875 C3.7784375 4.59429687 4.056875 5.31359375 4.34375 6.0546875 C5 8 5 8 5 10 C4.01 10 3.02 10 2 10 C1.34 6.7 0.68 3.4 0 0 Z " fill="#699004" transform="translate(459,422)"/>
<path d="M0 0 C0.99 0 1.98 0 3 0 C3.33 2.97 3.66 5.94 4 9 C3.01 9 2.02 9 1 9 C0.67 6.03 0.34 3.06 0 0 Z " fill="#9BC525" transform="translate(472,389)"/>
<path d="M0 0 C0.66 0 1.32 0 2 0 C2.50367757 1.45706726 3.00282556 2.91570096 3.5 4.375 C3.91765625 5.59316406 3.91765625 5.59316406 4.34375 6.8359375 C5 9 5 9 5 11 C4.01 11 3.02 11 2 11 C1.34 7.37 0.68 3.74 0 0 Z " fill="#699103" transform="translate(243,383)"/>
<path d="M0 0 C2 2 2 2 2.1953125 3.9453125 C2.13020833 5.96354167 2.06510417 7.98177083 2 10 C1.34 10 0.68 10 0 10 C-1.49106457 7.01787087 -1.11941467 4.28390342 -1 1 C-0.67 0.67 -0.34 0.34 0 0 Z " fill="#99C223" transform="translate(433,376)"/>
<path d="M0 0 C0.66 0 1.32 0 2 0 C3.31626692 3.61973402 4 6.09567131 4 10 C3.01 10 2.02 10 1 10 C0.67 6.7 0.34 3.4 0 0 Z " fill="#99C622" transform="translate(391,316)"/>
<path d="M0 0 C0.66 0 1.32 0 2 0 C2.67154933 1.28913487 3.33708859 2.58140204 4 3.875 C4.37125 4.59429687 4.7425 5.31359375 5.125 6.0546875 C6 8 6 8 6 10 C5.01 10 4.02 10 3 10 C2.67 8.35 2.34 6.7 2 5 C1.34 5 0.68 5 0 5 C0 3.35 0 1.7 0 0 Z " fill="#9BC825" transform="translate(150,294)"/>
<path d="M0 0 C0.66 0.33 1.32 0.66 2 1 C2.4140625 3.28515625 2.4140625 3.28515625 2.625 6.0625 C2.69976562 6.98160156 2.77453125 7.90070313 2.8515625 8.84765625 C2.92503906 9.91306641 2.92503906 9.91306641 3 11 C2.01 10.67 1.02 10.34 0 10 C-0.19412181 8.52168779 -0.38012131 7.04230684 -0.5625 5.5625 C-0.66691406 4.73878906 -0.77132813 3.91507812 -0.87890625 3.06640625 C-0.91886719 2.38449219 -0.95882813 1.70257813 -1 1 C-0.67 0.67 -0.34 0.34 0 0 Z " fill="#658B03" transform="translate(504,274)"/>
<path d="M0 0 C0.66 0 1.32 0 2 0 C2.66 3.3 3.32 6.6 4 10 C3.01 10 2.02 10 1 10 C0.67 6.7 0.34 3.4 0 0 Z " fill="#658B06" transform="translate(322,210)"/>
<path d="M0 0 C0.66 0 1.32 0 2 0 C3.2890625 1.6796875 3.2890625 1.6796875 4.625 3.875 C5.29402344 4.95394531 5.29402344 4.95394531 5.9765625 6.0546875 C7 8 7 8 7 10 C2.95868733 8.65289578 2.09711566 6.61571666 0 3 C0 2.01 0 1.02 0 0 Z " fill="#9EC826" transform="translate(409,198)"/>
<path d="M0 0 C0.99 0.495 0.99 0.495 2 1 C3.28317892 4.84953676 3.06643637 7.94738135 3 12 C2.34 12 1.68 12 1 12 C0.67 8.04 0.34 4.08 0 0 Z " fill="#89AF24" transform="translate(512,187)"/>
<path d="M0 0 C0.99 0.33 1.98 0.66 3 1 C3.33 3.64 3.66 6.28 4 9 C3.01 8.67 2.02 8.34 1 8 C0.67 5.36 0.34 2.72 0 0 Z " fill="#99C625" transform="translate(433,99)"/>
<path d="M0 0 C0.99 0 1.98 0 3 0 C3 2.64 3 5.28 3 8 C2.01 8 1.02 8 0 8 C0 5.36 0 2.72 0 0 Z " fill="#6A9205" transform="translate(77,563)"/>
<path d="M0 0 C2 1 2 1 2.6328125 2.84765625 C2.79523438 3.57855469 2.95765625 4.30945313 3.125 5.0625 C3.29257812 5.79597656 3.46015625 6.52945312 3.6328125 7.28515625 C3.75398438 7.85105469 3.87515625 8.41695313 4 9 C3.01 9 2.02 9 1 9 C-1.09230769 4.56923077 -1.09230769 4.56923077 -0.625 1.6875 C-0.41875 1.130625 -0.2125 0.57375 0 0 Z " fill="#9AC421" transform="translate(364,417)"/>
<path d="M0 0 C0.66 0.33 1.32 0.66 2 1 C2 3.31 2 5.62 2 8 C1.01 8.33 0.02 8.66 -1 9 C-1.09765625 2.84765625 -1.09765625 2.84765625 -1 1 C-0.67 0.67 -0.34 0.34 0 0 Z " fill="#99C321" transform="translate(483,388)"/>
<path d="M0 0 C0.66 0 1.32 0 2 0 C2.66 3.3 3.32 6.6 4 10 C3.01 9.67 2.02 9.34 1 9 C0.67 6.03 0.34 3.06 0 0 Z " fill="#99C623" transform="translate(427,376)"/>
<path d="M0 0 C0.99 0 1.98 0 3 0 C3 2.64 3 5.28 3 8 C2.01 8 1.02 8 0 8 C0 5.36 0 2.72 0 0 Z " fill="#699105" transform="translate(441,347)"/>
<path d="M0 0 C0.66 0 1.32 0 2 0 C3.60355101 3.50776784 4.22036864 6.14354879 4 10 C3.01 9.67 2.02 9.34 1 9 C0.67 6.03 0.34 3.06 0 0 Z " fill="#9AC724" transform="translate(162,320)"/>
<path d="M0 0 C0.99 0.33 1.98 0.66 3 1 C3 3.64 3 6.28 3 9 C2.34 9 1.68 9 1 9 C-0.4783226 6.04335481 -0.06032783 3.25770263 0 0 Z " fill="#99C622" transform="translate(396,317)"/>
<path d="M0 0 C0.99 0 1.98 0 3 0 C3.33 2.97 3.66 5.94 4 9 C3.01 8.67 2.02 8.34 1 8 C0.67 5.36 0.34 2.72 0 0 Z " fill="#699006" transform="translate(237,290)"/>
<path d="M0 0 C0.66 0 1.32 0 2 0 C3.4783226 2.95664519 3.06032783 5.74229737 3 9 C2.01 8.67 1.02 8.34 0 8 C0 5.36 0 2.72 0 0 Z " fill="#9AC524" transform="translate(360,268)"/>
<path d="M0 0 C3.90381822 3.90381822 3.56244183 5.66179036 4 11 C3.01 11 2.02 11 1 11 C0.67 7.37 0.34 3.74 0 0 Z " fill="#6B9205" transform="translate(272,215)"/>
<path d="M0 0 C0.66 0.33 1.32 0.66 2 1 C2 3.31 2 5.62 2 8 C1.01 8.33 0.02 8.66 -1 9 C-1.09765625 2.84765625 -1.09765625 2.84765625 -1 1 C-0.67 0.67 -0.34 0.34 0 0 Z " fill="#98C223" transform="translate(224,220)"/>
<path d="M0 0 C0.99 0 1.98 0 3 0 C6.22265625 5.17578125 6.22265625 5.17578125 7 7 C6.67 7.99 6.34 8.98 6 10 C4.99421411 8.71283353 3.99553202 7.42011342 3 6.125 C2.443125 5.40570313 1.88625 4.68640625 1.3125 3.9453125 C0 2 0 2 0 0 Z " fill="#9BC827" transform="translate(114,182)"/>
<path d="M0 0 C0.33 0 0.66 0 1 0 C1.33 3.96 1.66 7.92 2 12 C0 11 0 11 -1 8 C-1.125 4.375 -1.125 4.375 -1 1 C-0.67 0.67 -0.34 0.34 0 0 Z " fill="#9BC624" transform="translate(551,170)"/>
<path d="M0 0 C0.66 0 1.32 0 2 0 C2.67154933 1.28913487 3.33708859 2.58140204 4 3.875 C4.37125 4.59429687 4.7425 5.31359375 5.125 6.0546875 C6 8 6 8 6 10 C3 9 3 9 1.3125 6.125 C0 3 0 3 0 0 Z " fill="#698F06" transform="translate(90,158)"/>
<path d="M0 0 C1.32 0 2.64 0 4 0 C3.67 2.31 3.34 4.62 3 7 C2.01 7 1.02 7 0 7 C0 4.69 0 2.38 0 0 Z " fill="#96C520" transform="translate(268,144)"/>
<path d="M0 0 C2 2 2 2 2.125 5.625 C2.08375 6.73875 2.0425 7.8525 2 9 C1.01 9 0.02 9 -1 9 C-1.09765625 2.84765625 -1.09765625 2.84765625 -1 1 C-0.67 0.67 -0.34 0.34 0 0 Z " fill="#97C423" transform="translate(444,98)"/>
<path d="M0 0 C0.99 0 1.98 0 3 0 C3.66 2.97 4.32 5.94 5 9 C4.01 9 3.02 9 2 9 C1.34 6.03 0.68 3.06 0 0 Z " fill="#6B9206" transform="translate(242,7)"/>
<path d="M0 0 C0.99 0.33 1.98 0.66 3 1 C3.33 3.64 3.66 6.28 4 9 C3.01 8.67 2.02 8.34 1 8 C0.67 5.36 0.34 2.72 0 0 Z " fill="#9AC724" transform="translate(401,594)"/>
<path d="M0 0 C0.99 0.33 1.98 0.66 3 1 C3.33 3.31 3.66 5.62 4 8 C3.01 8.33 2.02 8.66 1 9 C0.67 6.03 0.34 3.06 0 0 Z " fill="#99C324" transform="translate(314,588)"/>
<path d="M0 0 C0.66 0 1.32 0 2 0 C2 2.64 2 5.28 2 8 C1.01 8 0.02 8 -1 8 C-1.04241723 5.66705225 -1.04092937 3.33297433 -1 1 C-0.67 0.67 -0.34 0.34 0 0 Z " fill="#99C623" transform="translate(526,486)"/>
<path d="M0 0 C0.99 0.33 1.98 0.66 3 1 C3.33 4.3 3.66 7.6 4 11 C3.34 10.67 2.68 10.34 2 10 C1.3671875 7.71484375 1.3671875 7.71484375 0.875 4.9375 C0.70742188 4.01839844 0.53984375 3.09929687 0.3671875 2.15234375 C0.24601562 1.44207031 0.12484375 0.73179687 0 0 Z " fill="#6A9007" transform="translate(324,426)"/>
<path d="M0 0 C0.99 0.495 0.99 0.495 2 1 C2.4140625 3.28515625 2.4140625 3.28515625 2.625 6.0625 C2.69976562 6.98160156 2.77453125 7.90070313 2.8515625 8.84765625 C2.92503906 9.91306641 2.92503906 9.91306641 3 11 C2.01 10.67 1.02 10.34 0 10 C0 6.7 0 3.4 0 0 Z " fill="#9AC722" transform="translate(312,421)"/>
<path d="M0 0 C0.99 0 1.98 0 3 0 C3.33 3.3 3.66 6.6 4 10 C3.34 10 2.68 10 2 10 C1.34 6.7 0.68 3.4 0 0 Z " fill="#699204" transform="translate(163,414)"/>
<path d="M0 0 C0.66 0 1.32 0 2 0 C2 2.64 2 5.28 2 8 C1.01 8 0.02 8 -1 8 C-1.04241723 5.66705225 -1.04092937 3.33297433 -1 1 C-0.67 0.67 -0.34 0.34 0 0 Z " fill="#97C525" transform="translate(331,416)"/>
<path d="M0 0 C2.99324263 1.0975223 3.84610901 1.67682892 5.25 4.625 C5.4975 5.40875 5.745 6.1925 6 7 C5.01 7.495 5.01 7.495 4 8 C2 6.25 2 6.25 0 4 C0 2.68 0 1.36 0 0 Z " fill="#88AE22" transform="translate(32,326)"/>
<path d="M0 0 C0.66 0 1.32 0 2 0 C3.76462683 3.08809695 4 4.23312136 4 8 C3.01 8 2.02 8 1 8 C-0.35439668 5.29120665 -0.06501451 2.99066732 0 0 Z " fill="#98C522" transform="translate(387,320)"/>
<path d="M0 0 C1.65 0 3.3 0 5 0 C5.33 2.64 5.66 5.28 6 8 C5.34 8 4.68 8 4 8 C3.67 6.02 3.34 4.04 3 2 C2.01 2 1.02 2 0 2 C0 1.34 0 0.68 0 0 Z " fill="#8AB029" transform="translate(237,288)"/>
<path d="M0 0 C0.99 0 1.98 0 3 0 C3 2.31 3 4.62 3 7 C2.01 7.33 1.02 7.66 0 8 C0 5.36 0 2.72 0 0 Z " fill="#99C224" transform="translate(369,269)"/>
<path d="M0 0 C0.66 0 1.32 0 2 0 C2.33 3.3 2.66 6.6 3 10 C2.34 10 1.68 10 1 10 C-0.1577506 6.52674819 -0.06866652 3.63932552 0 0 Z " fill="#99C623" transform="translate(251,230)"/>
<path d="M0 0 C0.66 0 1.32 0 2 0 C2.66 2.97 3.32 5.94 4 9 C3.01 8.67 2.02 8.34 1 8 C-0.1875 4.4375 -0.1875 4.4375 -1 1 C-0.67 0.67 -0.34 0.34 0 0 Z " fill="#98C521" transform="translate(559,150)"/>
<path d="M0 0 C0.66 0 1.32 0 2 0 C2.67154933 1.28913487 3.33708859 2.58140204 4 3.875 C4.37125 4.59429687 4.7425 5.31359375 5.125 6.0546875 C6 8 6 8 6 10 C5.01 10 4.02 10 3 10 C0 3.375 0 3.375 0 0 Z " fill="#9CCA27" transform="translate(218,72)"/>
<path d="M0 0 C0.99 0 1.98 0 3 0 C3.33 2.97 3.66 5.94 4 9 C3.34 9 2.68 9 2 9 C0.50178941 5.62902617 0 3.79557881 0 0 Z " fill="#9BC621" transform="translate(469,28)"/>
<path d="M0 0 C0.99 0.33 1.98 0.66 3 1 C3 3.31 3 5.62 3 8 C2.01 8 1.02 8 0 8 C0 5.36 0 2.72 0 0 Z " fill="#9CC527" transform="translate(227,24)"/>
<path d="M0 0 C0.66 0.33 1.32 0.66 2 1 C2.4140625 3.06640625 2.4140625 3.06640625 2.625 5.5625 C2.69976562 6.38878906 2.77453125 7.21507812 2.8515625 8.06640625 C2.92503906 9.02353516 2.92503906 9.02353516 3 10 C2.34 10 1.68 10 1 10 C0.63883954 8.5225254 0.28624952 7.04295325 -0.0625 5.5625 C-0.25972656 4.73878906 -0.45695313 3.91507813 -0.66015625 3.06640625 C-0.82837891 2.04353516 -0.82837891 2.04353516 -1 1 C-0.67 0.67 -0.34 0.34 0 0 Z " fill="#99C523" transform="translate(185,558)"/>
<path d="M0 0 C0.66 0 1.32 0 2 0 C2 0.66 2 1.32 2 2 C2.66 2 3.32 2 4 2 C5.0625 3.8125 5.0625 3.8125 6 6 C5.67 6.99 5.34 7.98 5 9 C1.96130589 7.48065294 1.35589694 5.01995228 0 2 C0 1.34 0 0.68 0 0 Z " fill="#699008" transform="translate(155,494)"/>
<path d="M0 0 C0.66 0 1.32 0 2 0 C2.33 3.3 2.66 6.6 3 10 C2.34 10 1.68 10 1 10 C0.67 6.7 0.34 3.4 0 0 Z " fill="#9CC926" transform="translate(520,484)"/>
<path d="M0 0 C0.66 0 1.32 0 2 0 C3.49821059 3.37097383 4 5.20442119 4 9 C3.01 8.67 2.02 8.34 1 8 C0.67 5.36 0.34 2.72 0 0 Z " fill="#99C623" transform="translate(497,435)"/>
<path d="M0 0 C0.99 0.33 1.98 0.66 3 1 C3 3.97 3 6.94 3 10 C2.34 10 1.68 10 1 10 C0.67 6.7 0.34 3.4 0 0 Z " fill="#9BC823" transform="translate(368,414)"/>
<path d="M0 0 C0.66 0 1.32 0 2 0 C2.33 2.97 2.66 5.94 3 9 C2.01 9.495 2.01 9.495 1 10 C0.67 6.7 0.34 3.4 0 0 Z " fill="#98C722" transform="translate(211,413)"/>
<path d="M0 0 C0.99 0.33 1.98 0.66 3 1 C3.73046875 3.06640625 3.73046875 3.06640625 4.1875 5.5625 C4.34605469 6.38878906 4.50460938 7.21507812 4.66796875 8.06640625 C4.77753906 8.70449219 4.88710937 9.34257812 5 10 C4.34 10 3.68 10 3 10 C0 3.375 0 3.375 0 0 Z " fill="#679105" transform="translate(160,419)"/>
<path d="M0 0 C0.66 0 1.32 0 2 0 C1.67 2.97 1.34 5.94 1 9 C0.34 9 -0.32 9 -1 9 C-1.99 9.495 -1.99 9.495 -3 10 C-2.39009109 6.44219804 -1.4216319 3.3171411 0 0 Z " fill="#90BD1A" transform="translate(297,372)"/>
<path d="M0 0 C0.66 0 1.32 0 2 0 C2.33 3.3 2.66 6.6 3 10 C2.34 10 1.68 10 1 10 C-0.1577506 6.52674819 -0.06866652 3.63932552 0 0 Z " fill="#648905" transform="translate(500,372)"/>
<path d="M0 0 C0.99 0.33 1.98 0.66 3 1 C3 1.66 3 2.32 3 3 C3.66 3 4.32 3 5 3 C7 6 7 6 7 9 C6.34 9 5.68 9 5 9 C3.7109375 7.5390625 3.7109375 7.5390625 2.375 5.625 C1.92898438 4.99851562 1.48296875 4.37203125 1.0234375 3.7265625 C0 2 0 2 0 0 Z " fill="#9BC827" transform="translate(536,309)"/>
<path d="M0 0 C0.99 0 1.98 0 3 0 C3.33 3.3 3.66 6.6 4 10 C1 8 1 8 0.48828125 6.0546875 C0.32552083 4.03645833 0.16276042 2.01822917 0 0 Z " fill="#6B9207" transform="translate(170,274)"/>
<path d="M0 0 C0.66 0 1.32 0 2 0 C2.66 2.97 3.32 5.94 4 9 C3.01 8.67 2.02 8.34 1 8 C-0.35439668 5.29120665 -0.06501451 2.99066732 0 0 Z " fill="#668D04" transform="translate(297,262)"/>
<path d="M0 0 C0.66 0 1.32 0 2 0 C2 2.64 2 5.28 2 8 C1.01 8 0.02 8 -1 8 C-1.125 2.25 -1.125 2.25 0 0 Z " fill="#9BC526" transform="translate(241,256)"/>
<path d="M0 0 C0.66 0 1.32 0 2 0 C4.1519437 3.22791555 4.20086443 4.28400809 4 8 C3.34 8 2.68 8 2 8 C-0.1519437 4.77208445 -0.20086443 3.71599191 0 0 Z " fill="#9AC724" transform="translate(451,240)"/>
<path d="M0 0 C0.66 0 1.32 0 2 0 C3.85776765 3.13498292 4.20140476 5.37471432 4 9 C3.34 9 2.68 9 2 9 C0.50178941 5.62902617 0 3.79557881 0 0 Z " fill="#658B04" transform="translate(567,210)"/>
<path d="M0 0 C0.99 0 1.98 0 3 0 C3.33 2.97 3.66 5.94 4 9 C3.34 9 2.68 9 2 9 C0.50178941 5.62902617 0 3.79557881 0 0 Z " fill="#668C05" transform="translate(505,190)"/>
<path d="M0 0 C0.99 0.33 1.98 0.66 3 1 C4.1875 3.5625 4.1875 3.5625 5 6 C5.66 6 6.32 6 7 6 C7 6.99 7 7.98 7 9 C6.01 9 5.02 9 4 9 C2.47551369 6.0173094 1.06059933 3.181798 0 0 Z " fill="#679003" transform="translate(70,162)"/>
<path d="M0 0 C3.22430866 4.83646298 3.09242903 7.26939984 3 13 C0.41073669 10.41073669 0.62601957 8.97294721 0.375 5.375 C0.30023438 4.37210938 0.22546875 3.36921875 0.1484375 2.3359375 C0.09945312 1.56507813 0.05046875 0.79421875 0 0 Z " fill="#8AB124" transform="translate(254,162)"/>
<path d="M0 0 C0 3.3 0 6.6 0 10 C-0.66 10 -1.32 10 -2 10 C-2.33 7.03 -2.66 4.06 -3 1 C-1 0 -1 0 0 0 Z " fill="#97C421" transform="translate(571,148)"/>
<path d="M0 0 C0.66 0 1.32 0 2 0 C2.33 3.3 2.66 6.6 3 10 C2.34 10 1.68 10 1 10 C-0.1577506 6.52674819 -0.06866652 3.63932552 0 0 Z " fill="#9BC827" transform="translate(438,97)"/>
<path d="M0 0 C3.00617269 3.00617269 2.59585316 5.82381598 3 10 C2.01 9.67 1.02 9.34 0 9 C0 6.03 0 3.06 0 0 Z " fill="#99C823" transform="translate(160,70)"/>
<path d="M0 0 C0.66 0 1.32 0 2 0 C3.60725635 3.21451269 3.05748185 6.43612536 3 10 C-0.00617269 6.99382731 0.40414684 4.17618402 0 0 Z " fill="#9BC825" transform="translate(406,592)"/>
<path d="M0 0 C0.66 0 1.32 0 2 0 C2.33 3.3 2.66 6.6 3 10 C2.34 10 1.68 10 1 10 C-0.60725635 6.78548731 -0.05748185 3.56387464 0 0 Z " fill="#638A02" transform="translate(360,508)"/>
<path d="M0 0 C0.99 0.33 1.98 0.66 3 1 C3.33 3.31 3.66 5.62 4 8 C3.34 8 2.68 8 2 8 C0.23537317 4.91190305 0 3.76687864 0 0 Z " fill="#9AC724" transform="translate(515,488)"/>
<path d="M0 0 C3 1 3 1 4.1875 2.8125 C5 5 5 5 5 9 C4.34 9 3.68 9 3 9 C0 3.375 0 3.375 0 0 Z " fill="#698F06" transform="translate(157,488)"/>
<path d="M0 0 C0.66 0 1.32 0 2 0 C2 2.64 2 5.28 2 8 C1.01 8 0.02 8 -1 8 C-0.67 5.36 -0.34 2.72 0 0 Z " fill="#99C623" transform="translate(414,483)"/>
<path d="M0 0 C0.66 0 1.32 0 2 0 C2.66 2.97 3.32 5.94 4 9 C3.01 9 2.02 9 1 9 C0.67 6.03 0.34 3.06 0 0 Z " fill="#648B04" transform="translate(551,461)"/>
<path d="M0 0 C0.66 0 1.32 0 2 0 C3.1577506 3.47325181 3.06866652 6.36067448 3 10 C2.34 9.67 1.68 9.34 1 9 C0.5859375 6.93359375 0.5859375 6.93359375 0.375 4.4375 C0.30023438 3.61121094 0.22546875 2.78492188 0.1484375 1.93359375 C0.09945313 1.29550781 0.05046875 0.65742188 0 0 Z " fill="#9DC726" transform="translate(477,387)"/>
<path d="M0 0 C0.66 0 1.32 0 2 0 C3.1577506 3.47325181 3.06866652 6.36067448 3 10 C2.34 10 1.68 10 1 10 C0.67 6.7 0.34 3.4 0 0 Z " fill="#9BCA28" transform="translate(241,368)"/>
<path d="M0 0 C0.66 0 1.32 0 2 0 C2.66 1.98 3.32 3.96 4 6 C4.66 6 5.32 6 6 6 C5.67 7.32 5.34 8.64 5 10 C4.15801693 8.90241493 3.32669329 7.79664683 2.5 6.6875 C2.0359375 6.07261719 1.571875 5.45773437 1.09375 4.82421875 C0 3 0 3 0 0 Z " fill="#678D06" transform="translate(34,324)"/>
<path d="M0 0 C0.66 0 1.32 0 2 0 C2 0.99 2 1.98 2 3 C2.66 3 3.32 3 4 3 C4.33 4.98 4.66 6.96 5 9 C4.01 8.67 3.02 8.34 2 8 C0.5522078 5.10441559 0 3.25811062 0 0 Z " fill="#9BC827" transform="translate(539,304)"/>
<path d="M0 0 C0.66 0 1.32 0 2 0 C2.66 2.97 3.32 5.94 4 9 C3.01 9 2.02 9 1 9 C0.67 6.03 0.34 3.06 0 0 Z " fill="#638805" transform="translate(242,288)"/>
<path d="M0 0 C0.66 0 1.32 0 2 0 C2.66 2.97 3.32 5.94 4 9 C3.34 9 2.68 9 2 9 C-0.29013653 5.5647952 -0.17842973 4.014669 0 0 Z " fill="#9CC926" transform="translate(153,290)"/>
<path d="M0 0 C0.66 0 1.32 0 2 0 C2.33 3.3 2.66 6.6 3 10 C2.34 10 1.68 10 1 10 C-0.1577506 6.52674819 -0.06866652 3.63932552 0 0 Z " fill="#628703" transform="translate(45,242)"/>
<path d="M0 0 C0.33 0 0.66 0 1 0 C1.33 3.3 1.66 6.6 2 10 C1.34 10 0.68 10 0 10 C-0.19412181 8.52168779 -0.38012131 7.04230684 -0.5625 5.5625 C-0.66691406 4.73878906 -0.77132812 3.91507813 -0.87890625 3.06640625 C-0.91886719 2.38449219 -0.95882812 1.70257813 -1 1 C-0.67 0.67 -0.34 0.34 0 0 Z " fill="#99C623" transform="translate(219,219)"/>
<path d="M0 0 C0.66 0 1.32 0 2 0 C5.22265625 5.17578125 5.22265625 5.17578125 6 7 C5.67 7.99 5.34 8.98 5 10 C4.16121545 8.71186658 3.32913217 7.41936744 2.5 6.125 C2.0359375 5.40570313 1.571875 4.68640625 1.09375 3.9453125 C0 2 0 2 0 0 Z " fill="#A0CA28" transform="translate(393,214)"/>
<path d="M0 0 C0.66 0.33 1.32 0.66 2 1 C2.4140625 3.06640625 2.4140625 3.06640625 2.625 5.5625 C2.69976562 6.38878906 2.77453125 7.21507812 2.8515625 8.06640625 C2.92503906 9.02353516 2.92503906 9.02353516 3 10 C-0.10562796 7.21161361 -0.63639513 5.181456 -1 1 C-0.67 0.67 -0.34 0.34 0 0 Z " fill="#89AF28" transform="translate(320,210)"/>
<path d="M0 0 C0.99 0 1.98 0 3 0 C3.33 2.64 3.66 5.28 4 8 C2 6.25 2 6.25 0 4 C0 2.68 0 1.36 0 0 Z " fill="#9DC724" transform="translate(412,194)"/>
<path d="M0 0 C3 2 3 2 3.51171875 4.1640625 C3.56972656 4.97617188 3.62773437 5.78828125 3.6875 6.625 C3.75324219 7.44226563 3.81898438 8.25953125 3.88671875 9.1015625 C3.92410156 9.72804687 3.96148437 10.35453125 4 11 C0.14766248 7.7260295 0.39897904 4.86754429 0 0 Z " fill="#8AB029" transform="translate(507,188)"/>
<path d="M0 0 C0.66 0 1.32 0 2 0 C2.66 2.97 3.32 5.94 4 9 C3.01 8.67 2.02 8.34 1 8 C0.67 5.36 0.34 2.72 0 0 Z " fill="#638903" transform="translate(480,138)"/>
<path d="M0 0 C0.66 0 1.32 0 2 0 C3.60725635 3.21451269 3.05748185 6.43612536 3 10 C2.34 9.67 1.68 9.34 1 9 C0.5859375 6.93359375 0.5859375 6.93359375 0.375 4.4375 C0.30023438 3.61121094 0.22546875 2.78492188 0.1484375 1.93359375 C0.09945313 1.29550781 0.05046875 0.65742188 0 0 Z " fill="#9AC925" transform="translate(263,142)"/>
<path d="M0 0 C0.66 0 1.32 0 2 0 C2.33 2.64 2.66 5.28 3 8 C2.01 8 1.02 8 0 8 C0 5.36 0 2.72 0 0 Z " fill="#9DC724" transform="translate(541,120)"/>
<path d="M0 0 C0.66 0 1.32 0 2 0 C2.67154933 1.28913487 3.33708859 2.58140204 4 3.875 C4.37125 4.59429687 4.7425 5.31359375 5.125 6.0546875 C6 8 6 8 6 10 C5.01 10 4.02 10 3 10 C2.01 6.7 1.02 3.4 0 0 Z " fill="#688F02" transform="translate(223,104)"/>
<path d="M0 0 C0.33 0 0.66 0 1 0 C1 3.3 1 6.6 1 10 C0.34 9.67 -0.32 9.34 -1 9 C-1.75 5.5625 -1.75 5.5625 -2 2 C-1.34 1.34 -0.68 0.68 0 0 Z " fill="#8BB222" transform="translate(226,96)"/>
<path d="M0 0 C0.66 0 1.32 0 2 0 C6 6.625 6 6.625 6 10 C5.34 10 4.68 10 4 10 C3.32845067 8.71086513 2.66291141 7.41859796 2 6.125 C1.62875 5.40570313 1.2575 4.68640625 0.875 3.9453125 C0 2 0 2 0 0 Z " fill="#9CC927" transform="translate(56,86)"/>
<path d="M0 0 C0.99 0.33 1.98 0.66 3 1 C3 3.31 3 5.62 3 8 C2.34 8 1.68 8 1 8 C-0.35439668 5.29120665 -0.06501451 2.99066732 0 0 Z " fill="#98C922" transform="translate(127,86)"/>
<path d="M0 0 C0.99 0 1.98 0 3 0 C3 2.64 3 5.28 3 8 C2.34 8 1.68 8 1 8 C0.67 5.36 0.34 2.72 0 0 Z " fill="#9DC726" transform="translate(280,61)"/>
<path d="M0 0 C1.46726798 3.81489674 0.43336419 6.29011622 -1 10 C-1.33 10 -1.66 10 -2 10 C-2 7.03 -2 4.06 -2 1 C-1.34 0.67 -0.68 0.34 0 0 Z " fill="#98C424" transform="translate(292,60)"/>
<path d="M0 0 C0.66 0 1.32 0 2 0 C2.33 3.3 2.66 6.6 3 10 C2.34 10 1.68 10 1 10 C-0.60725635 6.78548731 -0.05748185 3.56387464 0 0 Z " fill="#9DC823" transform="translate(474,25)"/>
<path d="M0 0 C2.33524782 2.25740623 4.18705073 4.2805761 6 7 C6 7.99 6 8.98 6 10 C5.34 10 4.68 10 4 10 C0 3.375 0 3.375 0 0 Z " fill="#678D07" transform="translate(240,12)"/>
<path d="M0 0 C2.83374881 3.20336822 3.5205537 5.78087253 4 10 C1.4375 7.8125 1.4375 7.8125 -1 5 C-0.8125 2.1875 -0.8125 2.1875 0 0 Z " fill="#88AE27" transform="translate(240,6)"/>
<path d="M0 0 C1.5 1.3125 1.5 1.3125 3 3 C3 3.99 3 4.98 3 6 C3.99 5.67 4.98 5.34 6 5 C6 5.66 6 6.32 6 7 C4.68 7 3.36 7 2 7 C2 6.34 2 5.68 2 5 C1.34 5 0.68 5 0 5 C0 4.01 0 3.02 0 2 C-0.99 1.67 -1.98 1.34 -3 1 C-2.01 0.67 -1.02 0.34 0 0 Z " fill="#80A521" transform="translate(157,491)"/>
<path d="M0 0 C0.66 0 1.32 0 2 0 C2.33 2.97 2.66 5.94 3 9 C2.01 8.67 1.02 8.34 0 8 C0 5.36 0 2.72 0 0 Z " fill="#9BC825" transform="translate(404,482)"/>
<path d="M0 0 C0.66 0 1.32 0 2 0 C3.35439668 2.70879335 3.06501451 5.00933268 3 8 C2.34 8 1.68 8 1 8 C-0.35439668 5.29120665 -0.06501451 2.99066732 0 0 Z " fill="#9AC726" transform="translate(135,454)"/>
<path d="M0 0 C0.99 0.33 1.98 0.66 3 1 C2.67 3.64 2.34 6.28 2 9 C1.34 9 0.68 9 0 9 C0 6.03 0 3.06 0 0 Z " fill="#9AC924" transform="translate(221,413)"/>
<path d="M0 0 C0.66 0 1.32 0 2 0 C2 2.31 2 4.62 2 7 C1.01 7 0.02 7 -1 7 C-1.04254356 5.00045254 -1.04080783 2.99958364 -1 1 C-0.67 0.67 -0.34 0.34 0 0 Z " fill="#99C721" transform="translate(301,289)"/>
<path d="M0 0 C0.66 0 1.32 0 2 0 C2.33 2.64 2.66 5.28 3 8 C2.01 8 1.02 8 0 8 C0 5.36 0 2.72 0 0 Z " fill="#9AC825" transform="translate(231,256)"/>
<path d="M0 0 C0.66 0 1.32 0 2 0 C2.66 2.97 3.32 5.94 4 9 C3.01 8.67 2.02 8.34 1 8 C0.67 5.36 0.34 2.72 0 0 Z " fill="#9BC524" transform="translate(280,244)"/>
<path d="M0 0 C0.66 0 1.32 0 2 0 C2.33 2.64 2.66 5.28 3 8 C2.01 8.33 1.02 8.66 0 9 C0 6.03 0 3.06 0 0 Z " fill="#99C623" transform="translate(290,242)"/>
<path d="M0 0 C2.5654594 2.5654594 2.54046087 4.47686668 3 8 C2.01 8 1.02 8 0 8 C-0.38063221 5.6739143 -0.71269945 3.33944736 -1 1 C-0.67 0.67 -0.34 0.34 0 0 Z " fill="#98C721" transform="translate(356,217)"/>
<path d="M0 0 C0.99 0.495 0.99 0.495 2 1 C2.4140625 3.06640625 2.4140625 3.06640625 2.625 5.5625 C2.69976562 6.38878906 2.77453125 7.21507812 2.8515625 8.06640625 C2.92503906 9.02353516 2.92503906 9.02353516 3 10 C2.34 10 1.68 10 1 10 C-0.1577506 6.52674819 -0.06866652 3.63932552 0 0 Z " fill="#9BC923" transform="translate(360,214)"/>
<path d="M0 0 C0.99 0 1.98 0 3 0 C3 2.64 3 5.28 3 8 C2.34 8 1.68 8 1 8 C0.67 5.36 0.34 2.72 0 0 Z " fill="#8AB028" transform="translate(574,208)"/>
<path d="M0 0 C0.66 0 1.32 0 2 0 C2.33 3.3 2.66 6.6 3 10 C2.34 9.67 1.68 9.34 1 9 C0.5859375 6.93359375 0.5859375 6.93359375 0.375 4.4375 C0.30023438 3.61121094 0.22546875 2.78492188 0.1484375 1.93359375 C0.09945313 1.29550781 0.05046875 0.65742188 0 0 Z " fill="#618605" transform="translate(510,188)"/>
<path d="M0 0 C0.66 0 1.32 0 2 0 C2.66 2.97 3.32 5.94 4 9 C3.01 8.67 2.02 8.34 1 8 C0.67 5.36 0.34 2.72 0 0 Z " fill="#9CC824" transform="translate(491,187)"/>
<path d="M0 0 C0.99 0.33 1.98 0.66 3 1 C3.73046875 2.84765625 3.73046875 2.84765625 4.1875 5.0625 C4.34605469 5.79597656 4.50460938 6.52945313 4.66796875 7.28515625 C4.83232422 8.13400391 4.83232422 8.13400391 5 9 C4.01 9.495 4.01 9.495 3 10 C0 3.375 0 3.375 0 0 Z " fill="#9CC928" transform="translate(117,176)"/>
<path d="M0 0 C0.66 0 1.32 0 2 0 C2.33 2.97 2.66 5.94 3 9 C2.34 9 1.68 9 1 9 C-0.4783226 6.04335481 -0.06032783 3.25770263 0 0 Z " fill="#658B05" transform="translate(248,167)"/>
<path d="M0 0 C0.66 0 1.32 0 2 0 C2.33 3.3 2.66 6.6 3 10 C0 7 0 7 -0.1875 3.3125 C-0.125625 2.219375 -0.06375 1.12625 0 0 Z " fill="#698F05" transform="translate(93,152)"/>
<path d="M0 0 C0.99 0.33 1.98 0.66 3 1 C3.33 3.64 3.66 6.28 4 9 C3.34 9 2.68 9 2 9 C1.34 6.03 0.68 3.06 0 0 Z " fill="#9DCA28" transform="translate(336,151)"/>
<path d="M0 0 C0.66 0 1.32 0 2 0 C2.33 2.64 2.66 5.28 3 8 C2.01 7.67 1.02 7.34 0 7 C0 4.69 0 2.38 0 0 Z " fill="#99C824" transform="translate(213,144)"/>
<path d="M0 0 C0.66 0 1.32 0 2 0 C2.33 2.97 2.66 5.94 3 9 C2.01 8.67 1.02 8.34 0 8 C0 5.36 0 2.72 0 0 Z " fill="#618704" transform="translate(485,136)"/>
<path d="M0 0 C0.99 0.33 1.98 0.66 3 1 C3.33 3.31 3.66 5.62 4 8 C3.34 8 2.68 8 2 8 C0.74335022 5.09399739 0 3.20395416 0 0 Z " fill="#9BCA26" transform="translate(122,88)"/>
<path d="M0 0 C2.5 2.25 2.5 2.25 5 5 C5 6.32 5 7.64 5 9 C4.34 9 3.68 9 3 9 C0 3.375 0 3.375 0 0 Z " fill="#9EC828" transform="translate(58,45)"/>
<path d="M0 0 C0.66 0 1.32 0 2 0 C3.25664978 2.90600261 4 4.79604584 4 8 C3.01 8 2.02 8 1 8 C0.67 5.36 0.34 2.72 0 0 Z " fill="#9AC821" transform="translate(497,600)"/>
<path d="M0 0 C0.99 0 1.98 0 3 0 C3 3.3 3 6.6 3 10 C1.19669467 6.39338934 0.53400897 3.91606575 0 0 Z " fill="#9EC827" transform="translate(318,586)"/>
<path d="M0 0 C0.99 0 1.98 0 3 0 C3.66 2.64 4.32 5.28 5 8 C4.34 8 3.68 8 3 8 C0.95830515 5.09451118 0 3.59857954 0 0 Z " fill="#628903" transform="translate(5,530)"/>
<path d="M0 0 C0.66 0 1.32 0 2 0 C2.33 2.97 2.66 5.94 3 9 C2.01 8.67 1.02 8.34 0 8 C0 5.36 0 2.72 0 0 Z " fill="#668C04" transform="translate(219,514)"/>
<path d="M0 0 C0.99 0 1.98 0 3 0 C2.67 2.64 2.34 5.28 2 8 C1.34 8 0.68 8 0 8 C0 5.36 0 2.72 0 0 Z " fill="#668C04" transform="translate(369,509)"/>
<path d="M0 0 C2.29633824 3.44450737 2.54016485 5.93812283 3 10 C2.34 10 1.68 10 1 10 C-0.60725635 6.78548731 -0.05748185 3.56387464 0 0 Z " fill="#9DCA2C" transform="translate(321,416)"/>
<path d="M0 0 C2 1 2 1 3.125 3.375 C4 6 4 6 4 9 C3.01 8.67 2.02 8.34 1 8 C0.67 5.36 0.34 2.72 0 0 Z " fill="#9AC622" transform="translate(423,379)"/>
<path d="M0 0 C1.875 0.625 1.875 0.625 4 2 C5.25 5.125 5.25 5.125 6 8 C5.34 8 4.68 8 4 8 C0 2.58823529 0 2.58823529 0 0 Z " fill="#9BC924" transform="translate(268,344)"/>
<path d="M0 0 C0.99 0 1.98 0 3 0 C3.66 3.3 4.32 6.6 5 10 C4.34 10 3.68 10 3 10 C2.01 6.7 1.02 3.4 0 0 Z " fill="#6A9003" transform="translate(36,318)"/>
<path d="M0 0 C1.53445094 3.06890187 0.54984289 5.70094266 0 9 C-2.7839183 7.60804085 -2.97898997 5.84424221 -4 3 C-2.68 2.01 -1.36 1.02 0 0 Z " fill="#8CB224" transform="translate(301,257)"/>
<path d="M0 0 C2 2 2 2 2.125 4.625 C2.08375 5.40875 2.0425 6.1925 2 7 C1.34 7 0.68 7 0 7 C0 6.34 0 5.68 0 5 C-0.66 5 -1.32 5 -2 5 C-1.125 1.125 -1.125 1.125 0 0 Z " fill="#8BB321" transform="translate(443,222)"/>
<path d="M0 0 C0.66 0 1.32 0 2 0 C2.33 2.97 2.66 5.94 3 9 C2.34 9 1.68 9 1 9 C0.67 6.03 0.34 3.06 0 0 Z " fill="#5F8403" transform="translate(572,208)"/>
<path d="M0 0 C-0.375 1.9375 -0.375 1.9375 -1 4 C-1.99 4.495 -1.99 4.495 -3 5 C-3 4.01 -3 3.02 -3 2 C-3.66 2 -4.32 2 -5 2 C-5.33 2.99 -5.66 3.98 -6 5 C-6.33 4.01 -6.66 3.02 -7 2 C-4 0 -4 0 0 0 Z " fill="#83AA1C" transform="translate(572,208)"/>
<path d="M0 0 C0.66 0 1.32 0 2 0 C5 5.625 5 5.625 5 9 C4.34 9 3.68 9 3 9 C0 3.375 0 3.375 0 0 Z " fill="#678D03" transform="translate(157,200)"/>
<path d="M0 0 C0.66 0 1.32 0 2 0 C2.33 2.97 2.66 5.94 3 9 C0 6 0 6 -0.1875 2.8125 C-0.125625 1.884375 -0.06375 0.95625 0 0 Z " fill="#699005" transform="translate(160,194)"/>
<path d="M0 0 C2.83374881 3.20336822 3.5205537 5.78087253 4 10 C1.2027092 7.93243723 0.97307727 6.85559629 0.3125 3.3125 C0.209375 2.219375 0.10625 1.12625 0 0 Z " fill="#9CC827" transform="translate(488,190)"/>
<path d="M0 0 C3.35914922 2.23943282 3.81681636 3.26842083 5 7 C5 7.99 5 8.98 5 10 C4.34 10 3.68 10 3 10 C0 3.375 0 3.375 0 0 Z " fill="#658B02" transform="translate(208,190)"/>
<path d="M0 0 C0.99 0.33 1.98 0.66 3 1 C3 3.97 3 6.94 3 10 C0.70366176 6.55549263 0.45983515 4.06187717 0 0 Z " fill="#688F03" transform="translate(211,185)"/>
<path d="M0 0 C0.66 0 1.32 0 2 0 C3.76462683 3.08809695 4 4.23312136 4 8 C3.34 8 2.68 8 2 8 C0.74335022 5.09399739 0 3.20395416 0 0 Z " fill="#9CCA26" transform="translate(258,144)"/>
<path d="M0 0 C0.99 0 1.98 0 3 0 C3 2.64 3 5.28 3 8 C2.34 8 1.68 8 1 8 C0.67 5.36 0.34 2.72 0 0 Z " fill="#9CC526" transform="translate(512,61)"/>
<path d="M0 0 C0.66 0 1.32 0 2 0 C3.35439668 2.70879335 3.06501451 5.00933268 3 8 C2.34 8 1.68 8 1 8 C0.67 5.36 0.34 2.72 0 0 Z " fill="#9DC926" transform="translate(222,24)"/>
<path d="M0 0 C0.66 0 1.32 0 2 0 C2.33 1.98 2.66 3.96 3 6 C2.01 6.66 1.02 7.32 0 8 C0 5.36 0 2.72 0 0 Z " fill="#98C123" transform="translate(380,0)"/>
<path d="M0 0 C0.66 0 1.32 0 2 0 C3.35439668 2.70879335 3.06501451 5.00933268 3 8 C2.34 8 1.68 8 1 8 C0.67 5.36 0.34 2.72 0 0 Z " fill="#618703" transform="translate(265,560)"/>
<path d="M0 0 C0.99 0 1.98 0 3 0 C3 3.3 3 6.6 3 10 C1.19669467 6.39338934 0.53400897 3.91606575 0 0 Z " fill="#5D8202" transform="translate(269,558)"/>
<path d="M0 0 C0.66 0 1.32 0 2 0 C2.33 2.64 2.66 5.28 3 8 C2.34 8 1.68 8 1 8 C-0.35439668 5.29120665 -0.06501451 2.99066732 0 0 Z " fill="#89AE29" transform="translate(8,528)"/>
<path d="M0 0 C0.33 0 0.66 0 1 0 C1.33 1.65 1.66 3.3 2 5 C2.33 5 2.66 5 3 5 C3 6.65 3 8.3 3 10 C2.01 10 1.02 10 0 10 C0 6.7 0 3.4 0 0 Z " fill="#81A818" transform="translate(93,499)"/>
<path d="M0 0 C0.66 0 1.32 0 2 0 C2.33 2.64 2.66 5.28 3 8 C2.34 8 1.68 8 1 8 C-0.35439668 5.29120665 -0.06501451 2.99066732 0 0 Z " fill="#9BC827" transform="translate(307,424)"/>
<path d="M0 0 C0.66 0 1.32 0 2 0 C3.5625 2.8125 3.5625 2.8125 5 6 C4.67 6.99 4.34 7.98 4 9 C0 2.25 0 2.25 0 0 Z " fill="#9DCA26" transform="translate(84,254)"/>
<path d="M0 0 C0.66 0 1.32 0 2 0 C3.25664978 2.90600261 4 4.79604584 4 8 C3.01 7.67 2.02 7.34 1 7 C0.67 4.69 0.34 2.38 0 0 Z " fill="#638A02" transform="translate(40,245)"/>
<path d="M0 0 C0.66 0 1.32 0 2 0 C3.25664978 2.90600261 4 4.79604584 4 8 C3.34 8 2.68 8 2 8 C0.23537317 4.91190305 0 3.76687864 0 0 Z " fill="#638903" transform="translate(318,214)"/>
<path d="M0 0 C2 2 2 2 3 5 C3.66 4.34 4.32 3.68 5 3 C5 4.32 5 5.64 5 7 C4.01 7.33 3.02 7.66 2 8 C0.93224776 6.03533587 -0.06553465 4.03144641 -1 2 C-0.67 1.34 -0.34 0.68 0 0 Z " fill="#7AA318" transform="translate(73,160)"/>
<path d="M0 0 C1.65 0 3.3 0 5 0 C5.33 2.31 5.66 4.62 6 7 C4.35 5.35 2.7 3.7 1 2 C0.67 2.66 0.34 3.32 0 4 C0 2.68 0 1.36 0 0 Z " fill="#8AB124" transform="translate(88,155)"/>
<path d="M0 0 C0.66 0.99 1.32 1.98 2 3 C1.01 3.33 0.02 3.66 -1 4 C-1 5.65 -1 7.3 -1 9 C-1.66 9 -2.32 9 -3 9 C-3 6.69 -3 4.38 -3 2 C-2.01 2 -1.02 2 0 2 C0 1.34 0 0.68 0 0 Z " fill="#93C01F" transform="translate(171,130)"/>
<path d="M0 0 C0.66 0 1.32 0 2 0 C3.25664978 2.90600261 4 4.79604584 4 8 C3.34 8 2.68 8 2 8 C0.74335022 5.09399739 0 3.20395416 0 0 Z " fill="#9DCC28" transform="translate(34,544)"/>
<path d="M0 0 C0.66 0 1.32 0 2 0 C2.33 2.64 2.66 5.28 3 8 C2.01 7.34 1.02 6.68 0 6 C-0.1875 2.875 -0.1875 2.875 0 0 Z " fill="#9CC926" transform="translate(86,422)"/>
<path d="M0 0 C0.99 0.33 1.98 0.66 3 1 C3 3.31 3 5.62 3 8 C2.34 8 1.68 8 1 8 C0.67 5.36 0.34 2.72 0 0 Z " fill="#94BE2C" transform="translate(164,423)"/>
<path d="M0 0 C0.66 0 1.32 0 2 0 C2.33 2.64 2.66 5.28 3 8 C2.34 8 1.68 8 1 8 C0.67 5.36 0.34 2.72 0 0 Z " fill="#608603" transform="translate(432,348)"/>
<path d="M0 0 C3.00617269 3.00617269 2.59585316 5.82381598 3 10 C1.5 8.9375 1.5 8.9375 0 7 C-0.1875 3.3125 -0.1875 3.3125 0 0 Z " fill="#9EC824" transform="translate(285,242)"/>
<path d="M0 0 C2.12508244 3.18762365 2.5020163 5.26512223 3 9 C2.34 9 1.68 9 1 9 C-0.4783226 6.04335481 -0.06032783 3.25770263 0 0 Z " fill="#9DCA27" transform="translate(456,237)"/>
<path d="M0 0 C0.66 0.33 1.32 0.66 2 1 C2 3.97 2 6.94 2 10 C1.01 10.33 0.02 10.66 -1 11 C-0.67 7.37 -0.34 3.74 0 0 Z " fill="#8FBC1A" transform="translate(217,219)"/>
<path d="M0 0 C1.09658936 3.28976808 0.79953138 4.71303767 0 8 C-0.33 7.34 -0.66 6.68 -1 6 C-1.66 6 -2.32 6 -3 6 C-2.42655063 3.13275314 -2.1385485 2.1385485 0 0 Z " fill="#90B223" transform="translate(275,208)"/>
<path d="M0 0 C2.26185454 2.26185454 3.03921617 3.96983561 4 7 C3.67 7.99 3.34 8.98 3 10 C0 5.25 0 5.25 0 3 C-0.66 2.67 -1.32 2.34 -2 2 C-1.34 2 -0.68 2 0 2 C0 1.34 0 0.68 0 0 Z " fill="#8FBC1B" transform="translate(117,179)"/>
</svg>
