<?xml version="1.0" standalone="no"?>
<!DOCTYPE svg PUBLIC "-//W3C//DTD SVG 20010904//EN" "http://www.w3.org/TR/2001/REC-SVG-20010904/DTD/svg10.dtd">
<!-- Created using Krita: https://krita.org -->
<svg xmlns="http://www.w3.org/2000/svg" 
    xmlns:xlink="http://www.w3.org/1999/xlink"
    xmlns:krita="http://krita.org/namespaces/svg/krita"
    xmlns:sodipodi="http://sodipodi.sourceforge.net/DTD/sodipodi-0.dtd"
    width="460.8pt"
    height="259.2pt"
    viewBox="0 0 460.8 259.2">
<defs/>
<circle id="shape0" transform="matrix(0.733272548470096 -0.22302124103772 0.220771236671944 0.7258747489256 -13.5216519234215 150.587684993909)" r="75" cx="75" cy="75" fill="#808080" fill-rule="evenodd" stroke="#808080" stroke-width="0.0312" stroke-linecap="square" stroke-linejoin="bevel"/><circle id="shape01" transform="matrix(0.733272548470096 -0.22302124103772 0.220771236671944 0.7258747489256 98.8161893365899 33.0467184041535)" r="75" cx="75" cy="75" fill="#808080" fill-rule="evenodd" stroke="#808080" stroke-width="0.0312" stroke-linecap="square" stroke-linejoin="bevel"/><path id="shape1" transform="matrix(0.733272548470096 -0.22302124103772 0.220771236671944 0.7258747489256 -10.9143147692425 74.7550325388348)" fill="#808080" fill-rule="evenodd" stroke="#808080" stroke-width="1.2" stroke-linecap="square" stroke-linejoin="bevel" d="M0 108.483L190.66 0L265.255 129.626L74.7472 237.517C90.2832 228.451 65.3675 185.439 0 108.483Z" sodipodi:nodetypes="ccccc"/><circle id="shape2" transform="matrix(0.733272548470096 -0.22302124103772 0.220771236671944 0.7258747489256 98.7442297908858 150.725255412664)" r="75" cx="75" cy="75" fill="#666666" fill-rule="evenodd" stroke="#808080" stroke-width="0.0312" stroke-linecap="square" stroke-linejoin="bevel"/><circle id="shape02" transform="matrix(0.733272548470096 -0.22302124103772 0.220771236671944 0.7258747489256 211.082071050897 33.1842888229086)" r="75" cx="75" cy="75" fill="#666666" fill-rule="evenodd" stroke="#808080" stroke-width="0.0312" stroke-linecap="square" stroke-linejoin="bevel"/><path id="shape3" transform="matrix(0.733272548470096 -0.22302124103772 0.220771236671944 0.7258747489256 101.351566945065 74.89260295759)" fill="#666666" fill-rule="evenodd" stroke="#808080" stroke-width="0.0312" stroke-linecap="square" stroke-linejoin="bevel" d="M0 108.483L190.66 0L265.255 129.626L74.7472 237.517C90.2832 228.451 65.3675 185.439 0 108.483Z" sodipodi:nodetypes="ccccc"/><circle id="shape4" transform="matrix(0.733272548470096 -0.22302124103772 0.220771236671944 0.7258747489256 218.877242892104 150.725255412664)" r="75" cx="75" cy="75" fill="#4c4c4c" fill-rule="evenodd" stroke="#4c4c4c" stroke-width="0.0312" stroke-linecap="square" stroke-linejoin="bevel"/><circle id="shape03" transform="matrix(0.733272548470096 -0.22302124103772 0.220771236671944 0.7258747489256 331.215084152115 33.1842888229086)" r="75" cx="75" cy="75" fill="#4c4c4c" fill-rule="evenodd" stroke="#4c4c4c" stroke-width="0.0312" stroke-linecap="square" stroke-linejoin="bevel"/><path id="shape5" transform="matrix(0.733272548470096 -0.22302124103772 0.220771236671944 0.7258747489256 221.484580046283 74.8926029575899)" fill="#4c4c4c" fill-rule="evenodd" stroke="#4c4c4c" stroke-width="1.2" stroke-linecap="square" stroke-linejoin="bevel" d="M0 108.483L190.66 0L265.255 129.626L74.566 236.951C90.2228 228.262 65.3675 185.439 0 108.483Z" sodipodi:nodetypes="ccccc"/><path id="shape6" transform="translate(45.0586836519152, 158.365847090074)" fill="none" stroke="#f2f2f2" stroke-width="9.6" stroke-linecap="square" stroke-linejoin="miter" stroke-miterlimit="2" d="M0 9.17436L8.06128 0" sodipodi:nodetypes="cc"/><path id="shape04" transform="translate(70.0587891495617, 131.052705137071)" fill="none" stroke="#f2f2f2" stroke-width="9.6" stroke-linecap="square" stroke-linejoin="miter" stroke-miterlimit="2" d="M0 9.17436L8.06128 0" sodipodi:nodetypes="cc"/><path id="shape05" transform="translate(95.9079657143003, 102.905800079282)" fill="none" stroke="#f2f2f2" stroke-width="9.6" stroke-linecap="square" stroke-linejoin="miter" stroke-miterlimit="2" d="M0 9.17436L8.06128 0" sodipodi:nodetypes="cc"/><path id="shape06" transform="translate(-24.151152, 111.16440975666)" fill="none" stroke="#f2f2f2" stroke-width="9.6" stroke-linecap="square" stroke-linejoin="miter" stroke-miterlimit="2" d="M0 9.17436L8.06128 0" sodipodi:nodetypes="cc"/><path id="shape07" transform="translate(121.878582409228, 74.721212398609)" fill="none" stroke="#f2f2f2" stroke-width="9.6" stroke-linecap="square" stroke-linejoin="miter" stroke-miterlimit="2" d="M0 9.17436L8.06128 0" sodipodi:nodetypes="cc"/><path id="shape08" transform="translate(146.533061884613, 47.7214859600121)" fill="none" stroke="#f2f2f2" stroke-width="9.6" stroke-linecap="square" stroke-linejoin="miter" stroke-miterlimit="2" d="M0 9.17436L8.06128 0" sodipodi:nodetypes="cc"/><path id="shape7" transform="matrix(0.999667625742268 0.0257805749124576 -0.0257805749124576 0.999667625742268 155.376858541099 157.67482301413)" fill="none" stroke="#f2f2f2" stroke-width="9.6" stroke-linecap="square" stroke-linejoin="miter" stroke-miterlimit="2" d="M0 9.17436L8.06128 0" sodipodi:nodetypes="cc"/><path id="shape09" transform="matrix(0.999667625742268 0.0257805749124576 -0.0257805749124576 0.999667625742268 181.072803149452 131.015276339011)" fill="none" stroke="#f2f2f2" stroke-width="9.6" stroke-linecap="square" stroke-linejoin="miter" stroke-miterlimit="2" d="M0 9.17436L8.06128 0" sodipodi:nodetypes="cc"/><path id="shape010" transform="matrix(0.999667625742268 0.0257805749124576 -0.0257805749124576 0.999667625742268 207.639031507713 103.544133220751)" fill="none" stroke="#f2f2f2" stroke-width="9.6" stroke-linecap="square" stroke-linejoin="miter" stroke-miterlimit="2" d="M0 9.17436L8.06128 0" sodipodi:nodetypes="cc"/><path id="shape011" transform="matrix(0.999667625742268 0.0257805749124576 -0.0257805749124576 0.999667625742268 234.327631112272 76.0384508007139)" fill="none" stroke="#f2f2f2" stroke-width="9.6" stroke-linecap="square" stroke-linejoin="miter" stroke-miterlimit="2" d="M0 9.17436L8.06128 0" sodipodi:nodetypes="cc"/><path id="shape012" transform="matrix(0.999667625742268 0.0257805749124576 -0.0257805749124576 0.999667625742268 259.669984543408 49.6833050311938)" fill="none" stroke="#f2f2f2" stroke-width="9.6" stroke-linecap="square" stroke-linejoin="miter" stroke-miterlimit="2" d="M0 9.17436L8.06128 0" sodipodi:nodetypes="cc"/><path id="shape8" transform="matrix(0.999303224836233 0.0373237837297571 -0.0373237837297571 0.999303224836233 276.333665975399 161.067226532697)" fill="none" stroke="#f2f2f2" stroke-width="9.6" stroke-linecap="square" stroke-linejoin="miter" stroke-miterlimit="2" d="M0 9.17436L8.06128 0" sodipodi:nodetypes="cc"/><path id="shape013" transform="matrix(0.999303224836233 0.0373237837297571 -0.0373237837297571 0.999303224836233 302.335781823677 134.706214229467)" fill="none" stroke="#f2f2f2" stroke-width="9.6" stroke-linecap="square" stroke-linejoin="miter" stroke-miterlimit="2" d="M0 9.17436L8.06128 0" sodipodi:nodetypes="cc"/><path id="shape014" transform="matrix(0.999303224836233 0.0373237837297571 -0.0373237837297571 0.999303224836233 329.21749632122 107.543710311754)" fill="none" stroke="#f2f2f2" stroke-width="9.6" stroke-linecap="square" stroke-linejoin="miter" stroke-miterlimit="2" d="M0 9.17436L8.06128 0" sodipodi:nodetypes="cc"/><path id="shape015" transform="matrix(0.999303224836233 0.0373237837297571 -0.0373237837297571 0.999303224836233 356.221972790553 80.3480826326275)" fill="none" stroke="#f2f2f2" stroke-width="9.6" stroke-linecap="square" stroke-linejoin="miter" stroke-miterlimit="2" d="M0 9.17436L8.06128 0" sodipodi:nodetypes="cc"/><path id="shape016" transform="matrix(0.999303224836233 0.0373237837297571 -0.0373237837297571 0.999303224836233 381.867005587321 54.2873673927505)" fill="none" stroke="#f2f2f2" stroke-width="9.6" stroke-linecap="square" stroke-linejoin="miter" stroke-miterlimit="2" d="M0 9.17436L8.06128 0" sodipodi:nodetypes="cc"/>
</svg>
