<?xml version="1.0" encoding="iso-8859-1"?>
<!-- Uploaded to: SVG Repo, www.svgrepo.com, Generator: SVG Repo Mixer Tools -->
<svg fill="#000000" height="800px" width="800px" version="1.1" id="Layer_1" xmlns="http://www.w3.org/2000/svg" xmlns:xlink="http://www.w3.org/1999/xlink" 
	 viewBox="0 0 512 512" xml:space="preserve">
<g>
	<g>
		<path d="M262.598,3.402c-3.133-4.536-10.06-4.536-13.194,0c-4.346,6.291-18.525,27.681-18.525,38.766
			c0,13.852,11.268,25.122,25.122,25.122c13.852,0,25.122-11.27,25.122-25.122C281.123,31.083,266.944,9.694,262.598,3.402z
			 M256.001,51.254c-5.01,0-9.087-4.076-9.087-9.087c0.019-2.691,3.836-10.645,9.087-19.398c5.25,8.753,9.066,16.708,9.087,19.398
			C265.088,47.178,261.012,51.254,256.001,51.254z"/>
	</g>
</g>
<g>
	<g>
		<path d="M459.805,322.049c-5.151-54.65-32.643-101.439-77.412-131.747c-3.667-2.483-8.653-1.523-11.134,2.144
			c-2.482,3.667-1.522,8.652,2.144,11.134c23.671,16.026,42.022,37.138,54.173,61.781v7.715c0,9.726-7.913,17.639-17.639,17.639
			s-17.639-7.913-17.639-17.639V247.42c0-18.568-15.106-33.674-33.674-33.674s-33.674,15.106-33.674,33.674
			c0,9.726-7.913,17.639-17.639,17.639c-9.726,0-17.639-7.913-17.639-17.639v-17.104c0-18.568-15.106-33.674-33.674-33.674
			s-33.674,15.106-33.674,33.674v34.209c0,9.726-7.913,17.639-17.639,17.639c-9.726,0-17.639-7.913-17.639-17.639v-8.552
			c0-18.568-15.106-33.674-33.674-33.674s-33.674,15.106-33.674,33.674v34.208c0,9.726-7.913,17.639-17.639,17.639
			c-9.726,0-17.639-7.913-17.639-17.639v-24.803c0-0.107-0.012-0.212-0.016-0.318c28.825-58.64,91.869-95.142,171.593-95.142
			c26.813,0,52.314,4.272,75.794,12.696c4.168,1.495,8.758-0.671,10.254-4.839c1.495-4.167-0.671-8.758-4.839-10.254
			c-15.142-5.433-31.044-9.244-47.535-11.434V76.376c0-4.428-3.59-8.018-8.018-8.018h-51.313c-4.428,0-8.018,3.59-8.018,8.018
			v79.737c-39.48,5.306-75.605,19.939-104.062,42.504c-38.487,30.517-61.334,73.2-66.068,123.432
			c-0.662,7.014,1.682,14.028,6.428,19.242c4.754,5.223,11.53,8.219,18.591,8.219h2.152l49.687,134.862
			C135.141,500.896,151.064,512,168.675,512h174.651c17.611,0,33.534-11.103,39.622-27.629l49.686-134.862h2.152
			c7.061,0,13.837-2.995,18.591-8.219C458.123,336.076,460.467,329.063,459.805,322.049z M238.362,84.394h35.278v70.088
			c-11.745-0.793-23.533-0.796-35.278,0.014V84.394z M168.674,495.965c-10.922,0-20.799-6.887-24.575-17.136L96.456,349.51h33.938
			l46.249,146.455H168.674z M245.747,495.965L222.622,349.51h66.756l-23.124,146.455H245.747z M282.488,495.965l23.125-146.455
			h59.179l-46.249,146.455H282.488z M367.902,478.829c-3.776,10.25-13.652,17.136-24.576,17.136h-7.969l46.249-146.455h33.938
			L367.902,478.829z M441.518,330.497c-1.747,1.92-4.138,2.977-6.733,2.977H187.584c-4.428,0-8.018,3.59-8.018,8.018
			c0,4.428,3.59,8.018,8.018,8.018h18.805l23.125,146.455h-36.054l-46.355-146.79c3.315-0.984,5.735-4.048,5.735-7.683
			c0-4.428-3.59-8.018-8.018-8.018H77.216c-5.272,0-9.551-4.661-9.056-9.922c0.644-6.822,1.663-13.474,3.027-19.951
			c5.196,11.906,17.076,20.251,30.875,20.251c18.568,0,33.674-15.106,33.674-33.674v-34.209c0-9.726,7.913-17.639,17.639-17.639
			c9.726,0,17.639,7.913,17.639,17.639v8.552c0,18.568,15.106,33.674,33.674,33.674s33.674-15.106,33.674-33.674v-34.209
			c0-9.726,7.913-17.639,17.639-17.639c9.726,0,17.639,7.913,17.639,17.639v17.104c0,18.568,15.106,33.674,33.674,33.674
			s33.674-15.106,33.674-33.674c0-9.726,7.913-17.639,17.639-17.639s17.639,7.913,17.639,17.639v25.656
			c0,18.568,15.106,33.674,33.674,33.674c11.608,0,21.864-5.904,27.919-14.867c2.941,10.156,4.952,20.74,5.982,31.672
			C444.083,326.12,443.258,328.586,441.518,330.497z"/>
	</g>
</g>
<g>
	<g>
		<path d="M205.757,222.297h-1.069c-4.428,0-8.018,3.59-8.018,8.018s3.59,8.018,8.018,8.018h1.069c4.428,0,8.018-3.59,8.018-8.018
			S210.185,222.297,205.757,222.297z"/>
	</g>
</g>
<g>
	<g>
		<path d="M325.487,196.64h-1.069c-4.428,0-8.018,3.59-8.018,8.018s3.59,8.018,8.018,8.018h1.069c4.428,0,8.018-3.59,8.018-8.018
			S329.915,196.64,325.487,196.64z"/>
	</g>
</g>
<g>
	<g>
		<path d="M411.009,265.057h-1.069c-4.428,0-8.018,3.59-8.018,8.018s3.59,8.018,8.018,8.018h1.069c4.428,0,8.018-3.59,8.018-8.018
			S415.436,265.057,411.009,265.057z"/>
	</g>
</g>
<g>
	<g>
		<path d="M308.383,222.297h-1.069c-4.428,0-8.018,3.59-8.018,8.018s3.589,8.018,8.018,8.018h1.069c4.428,0,8.018-3.59,8.018-8.018
			S312.811,222.297,308.383,222.297z"/>
	</g>
</g>
<g>
	<g>
		<path d="M222.862,188.088h-1.069c-4.428,0-8.018,3.59-8.018,8.018s3.59,8.018,8.018,8.018h1.069c4.428,0,8.018-3.59,8.018-8.018
			S227.29,188.088,222.862,188.088z"/>
	</g>
</g>
<g>
	<g>
		<path d="M180.101,196.64h-1.069c-4.428,0-8.018,3.59-8.018,8.018s3.59,8.018,8.018,8.018h1.069c4.428,0,8.018-3.59,8.018-8.018
			S184.529,196.64,180.101,196.64z"/>
	</g>
</g>
<g>
	<g>
		<path d="M103.132,256.505h-1.069c-4.428,0-8.018,3.59-8.018,8.018c0,4.428,3.59,8.018,8.018,8.018h1.069
			c4.428,0,8.018-3.59,8.018-8.018C111.15,260.095,107.56,256.505,103.132,256.505z"/>
	</g>
</g>
<g>
	<g>
		<path d="M291.279,179.536h-1.069c-4.428,0-8.018,3.59-8.018,8.018s3.59,8.018,8.018,8.018h1.069c4.428,0,8.018-3.59,8.018-8.018
			S295.707,179.536,291.279,179.536z"/>
	</g>
</g>
<g>
	<g>
		<path d="M401.387,51.254h-8.552c-4.428,0-8.018,3.59-8.018,8.018s3.589,8.018,8.018,8.018h8.552c4.428,0,8.018-3.59,8.018-8.018
			S405.815,51.254,401.387,51.254z"/>
	</g>
</g>
<g>
	<g>
		<path d="M358.627,51.254h-8.552c-4.428,0-8.018,3.59-8.018,8.018s3.589,8.018,8.018,8.018h8.552c4.428,0,8.018-3.59,8.018-8.018
			S363.055,51.254,358.627,51.254z"/>
	</g>
</g>
<g>
	<g>
		<path d="M375.731,68.359c-4.428,0-8.018,3.59-8.018,8.018v8.552c0,4.428,3.589,8.018,8.018,8.018c4.428,0,8.018-3.59,8.018-8.018
			v-8.552C383.749,71.948,380.159,68.359,375.731,68.359z"/>
	</g>
</g>
<g>
	<g>
		<path d="M375.731,25.598c-4.428,0-8.018,3.59-8.018,8.018v8.552c0,4.428,3.589,8.018,8.018,8.018c4.428,0,8.018-3.59,8.018-8.018
			v-8.552C383.749,29.188,380.159,25.598,375.731,25.598z"/>
	</g>
</g>
<g>
	<g>
		<path d="M136.271,119.671h-8.552c-4.428,0-8.018,3.59-8.018,8.018c0,4.428,3.589,8.018,8.018,8.018h8.552
			c4.428,0,8.018-3.59,8.018-8.018C144.289,123.261,140.699,119.671,136.271,119.671z"/>
	</g>
</g>
<g>
	<g>
		<path d="M93.511,119.671h-8.552c-4.428,0-8.018,3.59-8.018,8.018c0,4.428,3.589,8.018,8.018,8.018h8.552
			c4.428,0,8.018-3.59,8.018-8.018C101.528,123.261,97.939,119.671,93.511,119.671z"/>
	</g>
</g>
<g>
	<g>
		<path d="M110.615,136.776c-4.428,0-8.018,3.59-8.018,8.018v8.552c0,4.428,3.589,8.018,8.018,8.018c4.428,0,8.018-3.59,8.018-8.018
			v-8.552C118.633,140.365,115.043,136.776,110.615,136.776z"/>
	</g>
</g>
<g>
	<g>
		<path d="M110.615,94.015c-4.428,0-8.018,3.59-8.018,8.018v8.552c0,4.428,3.589,8.018,8.018,8.018c4.428,0,8.018-3.59,8.018-8.018
			v-8.552C118.633,97.605,115.043,94.015,110.615,94.015z"/>
	</g>
</g>
</svg>