<?xml version="1.0" encoding="iso-8859-1"?>
<!-- Uploaded to: SVG Repo, www.svgrepo.com, Generator: SVG Repo Mixer Tools -->
<svg version="1.1" id="Layer_1" xmlns="http://www.w3.org/2000/svg" xmlns:xlink="http://www.w3.org/1999/xlink" 
	 viewBox="0 0 512 512" xml:space="preserve">
<rect x="230.342" y="76.371" style="fill:#40CACF;" width="51.313" height="94.073"/>
<rect x="230.342" y="76.371" style="fill:#3AB0B0;" width="17.104" height="94.073"/>
<path style="fill:#F9C900;" d="M238.897,42.168c0-9.447,17.104-34.209,17.104-34.209s17.104,24.762,17.104,34.209
	s-7.657,17.104-17.104,17.104C246.554,59.272,238.897,51.615,238.897,42.168z"/>
<path style="fill:#FFBDC7;" d="M256.001,161.897c-102.329,0-186.409,61.037-195.822,160.904
	c-0.945,10.027,6.965,18.691,17.037,18.691h357.57c10.072,0,17.983-8.663,17.037-18.691
	C442.41,222.934,358.331,161.897,256.001,161.897z"/>
<path style="fill:#E57789;" d="M208.582,166.489c-79.869,15.912-140.494,72.402-148.404,156.313
	c-0.945,10.028,6.965,18.691,17.037,18.691h33.399C110.615,267.462,149.813,202.594,208.582,166.489z"/>
<path style="fill:#F1EDE8;" d="M435.596,263.238c-30.727-64.02-99.58-101.341-179.595-101.341S107.133,199.217,76.406,263.238
	v26.941c0,14.17,11.487,25.656,25.656,25.656s25.656-11.487,25.656-25.656v-34.209c0-14.17,11.487-25.656,25.656-25.656
	s25.656,11.487,25.656,25.656v8.552c0,14.17,11.487,25.656,25.656,25.656s25.656-11.487,25.656-25.656v-34.209
	c0-14.17,11.487-25.656,25.656-25.656c14.17,0,25.656,11.487,25.656,25.656v17.104c0,14.17,11.487,25.656,25.656,25.656
	c14.17,0,25.656-11.487,25.656-25.656c0-14.17,11.487-25.656,25.656-25.656c14.17,0,25.656,11.487,25.656,25.656v25.656
	c0,14.17,11.487,25.656,25.656,25.656c14.17,0,25.656-11.487,25.656-25.656V263.238z"/>
<path style="fill:#E3DCD2;" d="M127.719,259.371v-3.401c0-9.867,5.574-18.429,13.742-22.721
	c16.864-27.113,39.866-50.006,67.074-66.731c-59.114,11.792-107.688,45.797-132.128,96.719v26.941
	c0,14.17,11.487,25.656,25.656,25.656c3.721,0,7.253-0.799,10.444-2.224C115.092,294.578,120.286,276.375,127.719,259.371z"/>
<g>
	<path style="fill:#F9AA0C;" d="M343.325,503.983H168.676c-14.332,0-27.144-8.934-32.099-22.382L84.959,341.492h342.085
		l-51.619,140.108C370.47,495.049,357.657,503.983,343.325,503.983z"/>
	<path style="fill:#F9AA0C;" d="M84.959,341.492l51.619,140.108c4.955,13.448,17.767,22.383,32.099,22.383h18.908l-51.313-162.49
		H84.959V341.492z"/>
</g>
<polygon style="fill:#F5E038;" points="136.271,341.492 187.584,503.983 238.897,503.983 213.241,341.492 "/>
<polygon style="fill:#F9AA0C;" points="213.241,341.492 238.897,503.983 273.105,503.983 298.762,341.492 "/>
<polygon style="fill:#F5E038;" points="298.762,341.492 273.105,503.983 324.418,503.983 375.731,341.492 "/>
<path style="fill:#F9AA0C;" d="M375.731,341.492l-51.313,162.49h18.908c14.332,0,27.144-8.934,32.099-22.383l51.619-140.108h-51.313
	V341.492z"/>
<polygon style="fill:#EA802C;" points="136.271,341.492 84.959,341.492 94.411,367.149 144.372,367.149 "/>
<polygon style="fill:#F9C900;" points="213.241,341.492 136.271,341.492 144.372,367.149 217.291,367.149 "/>
<polygon style="fill:#EA802C;" points="298.762,341.492 213.241,341.492 217.291,367.149 294.71,367.149 "/>
<polygon style="fill:#F9C900;" points="375.731,341.492 298.762,341.492 294.71,367.149 367.629,367.149 "/>
<polygon style="fill:#EA802C;" points="427.044,341.492 375.731,341.492 367.629,367.149 417.59,367.149 "/>
<path d="M256.001,67.289c13.852,0,25.122-11.27,25.122-25.122c0-11.085-14.179-32.474-18.525-38.766
	c-3.133-4.536-10.061-4.536-13.194,0c-4.346,6.291-18.525,27.681-18.525,38.766C230.879,56.02,242.148,67.289,256.001,67.289z
	 M256.001,22.769c5.25,8.753,9.066,16.708,9.087,19.398c0,5.01-4.076,9.087-9.087,9.087c-5.01,0-9.087-4.076-9.087-9.087
	C246.934,39.477,250.75,31.522,256.001,22.769z"/>
<path d="M459.805,322.049c-5.151-54.65-32.643-101.439-77.412-131.747c-3.667-2.483-8.653-1.523-11.134,2.144
	c-2.482,3.667-1.522,8.652,2.144,11.134c23.671,16.026,42.022,37.138,54.173,61.781v7.715c0,9.726-7.913,17.639-17.639,17.639
	c-9.726,0-17.639-7.913-17.639-17.639V247.42c0-18.568-15.106-33.674-33.674-33.674c-18.568,0-33.674,15.106-33.674,33.674
	c0,9.726-7.913,17.639-17.639,17.639s-17.639-7.913-17.639-17.639v-17.104c0-18.568-15.106-33.674-33.674-33.674
	s-33.674,15.106-33.674,33.674v34.209c0,9.726-7.913,17.639-17.639,17.639c-9.726,0-17.639-7.913-17.639-17.639v-8.552
	c0-18.568-15.106-33.674-33.674-33.674s-33.674,15.106-33.674,33.674v34.209c0,9.726-7.913,17.639-17.639,17.639
	s-17.639-7.913-17.639-17.639v-24.803c0-0.107-0.012-0.212-0.016-0.317c28.825-58.64,91.869-95.142,171.593-95.142
	c26.813,0,52.314,4.272,75.794,12.696c4.168,1.494,8.758-0.671,10.254-4.839c1.494-4.167-0.671-8.758-4.839-10.254
	c-15.142-5.433-31.044-9.244-47.535-11.434V76.376c0-4.428-3.59-8.018-8.018-8.018h-51.313c-4.428,0-8.018,3.59-8.018,8.018v79.737
	c-39.48,5.306-75.605,19.939-104.062,42.504c-38.487,30.517-61.334,73.2-66.068,123.432c-0.662,7.014,1.682,14.028,6.428,19.242
	c4.754,5.223,11.53,8.219,18.591,8.219h2.152l49.687,134.862C135.141,500.896,151.064,512,168.675,512h174.651
	c17.611,0,33.534-11.103,39.622-27.629l49.686-134.862h2.152c7.061,0,13.837-2.995,18.591-8.219
	C458.123,336.077,460.467,329.063,459.805,322.049z M238.362,84.394h35.278v70.088c-11.745-0.793-23.533-0.796-35.278,0.014V84.394z
	 M144.1,478.829L96.456,349.51h33.938l46.249,146.455h-7.968C157.752,495.965,147.876,489.078,144.1,478.829z M282.488,495.965
	l23.125-146.455h59.179l-46.249,146.455H282.488z M266.254,495.965h-20.507L222.622,349.51h66.756L266.254,495.965z
	 M367.902,478.829c-3.776,10.25-13.652,17.136-24.576,17.136h-7.968l46.249-146.455h33.938L367.902,478.829z M441.518,330.497
	c-1.747,1.92-4.138,2.977-6.733,2.977H187.584c-4.428,0-8.018,3.59-8.018,8.018s3.59,8.018,8.018,8.018h18.805l23.125,146.455
	h-36.054l-46.355-146.79c3.315-0.984,5.735-4.048,5.735-7.683c0-4.428-3.59-8.018-8.018-8.018H77.216
	c-5.272,0-9.551-4.661-9.056-9.922c0.644-6.822,1.663-13.474,3.027-19.951c5.196,11.906,17.076,20.251,30.875,20.251
	c18.568,0,33.674-15.106,33.674-33.674v-34.209c0-9.726,7.913-17.639,17.639-17.639s17.639,7.913,17.639,17.639v8.552
	c0,18.568,15.106,33.674,33.674,33.674s33.674-15.106,33.674-33.674v-34.209c0-9.726,7.913-17.639,17.639-17.639
	s17.639,7.913,17.639,17.639v17.104c0,18.568,15.106,33.674,33.674,33.674c18.568,0,33.674-15.106,33.674-33.674
	c0-9.726,7.913-17.639,17.639-17.639c9.726,0,17.639,7.913,17.639,17.639v25.656c0,18.568,15.106,33.674,33.674,33.674
	c11.608,0,21.863-5.904,27.919-14.867c2.941,10.156,4.952,20.74,5.982,31.672C444.083,326.12,443.258,328.586,441.518,330.497z"/>
<path d="M204.688,222.297c-4.428,0-8.018,3.59-8.018,8.018c0,4.428,3.59,8.018,8.018,8.018h1.069c4.428,0,8.018-3.59,8.018-8.018
	c0-4.428-3.59-8.018-8.018-8.018H204.688z"/>
<path d="M325.487,196.64h-1.069c-4.428,0-8.018,3.59-8.018,8.018c0,4.428,3.59,8.018,8.018,8.018h1.069
	c4.428,0,8.018-3.59,8.018-8.018C333.505,200.23,329.915,196.64,325.487,196.64z"/>
<path d="M411.009,281.093c4.428,0,8.018-3.59,8.018-8.018c0-4.428-3.59-8.018-8.018-8.018h-1.069c-4.428,0-8.018,3.59-8.018,8.018
	c0,4.428,3.59,8.018,8.018,8.018H411.009z"/>
<path d="M307.314,238.332h1.069c4.428,0,8.018-3.59,8.018-8.018c0-4.428-3.59-8.018-8.018-8.018h-1.069
	c-4.428,0-8.018,3.59-8.018,8.018C299.296,234.742,302.885,238.332,307.314,238.332z"/>
<path d="M221.793,188.088c-4.428,0-8.018,3.59-8.018,8.018c0,4.428,3.59,8.018,8.018,8.018h1.069c4.428,0,8.018-3.59,8.018-8.018
	c0-4.428-3.59-8.018-8.018-8.018H221.793z"/>
<path d="M179.032,196.64c-4.428,0-8.018,3.59-8.018,8.018c0,4.428,3.59,8.018,8.018,8.018h1.069c4.428,0,8.018-3.59,8.018-8.018
	c0-4.428-3.59-8.018-8.018-8.018H179.032z"/>
<path d="M102.063,256.505c-4.428,0-8.018,3.59-8.018,8.018c0,4.428,3.59,8.018,8.018,8.018h1.069c4.428,0,8.018-3.59,8.018-8.018
	c0-4.428-3.59-8.018-8.018-8.018H102.063z"/>
<path d="M291.279,179.536h-1.069c-4.428,0-8.018,3.59-8.018,8.018c0,4.428,3.59,8.018,8.018,8.018h1.069
	c4.428,0,8.018-3.59,8.018-8.018C299.296,183.126,295.707,179.536,291.279,179.536z"/>
<path d="M392.835,67.289h8.552c4.428,0,8.018-3.59,8.018-8.018s-3.59-8.018-8.018-8.018h-8.552c-4.428,0-8.018,3.59-8.018,8.018
	S388.406,67.289,392.835,67.289z"/>
<path d="M350.075,67.289h8.552c4.428,0,8.018-3.59,8.018-8.018s-3.59-8.018-8.018-8.018h-8.552c-4.428,0-8.018,3.59-8.018,8.018
	S345.646,67.289,350.075,67.289z"/>
<path d="M375.731,92.946c4.428,0,8.018-3.59,8.018-8.018v-8.552c0-4.428-3.59-8.018-8.018-8.018s-8.018,3.59-8.018,8.018v8.552
	C367.713,89.356,371.302,92.946,375.731,92.946z"/>
<path d="M375.731,50.185c4.428,0,8.018-3.59,8.018-8.018v-8.552c0-4.428-3.59-8.018-8.018-8.018s-8.018,3.59-8.018,8.018v8.552
	C367.713,46.595,371.302,50.185,375.731,50.185z"/>
<path d="M127.719,135.707h8.552c4.428,0,8.018-3.59,8.018-8.018s-3.59-8.018-8.018-8.018h-8.552c-4.428,0-8.018,3.59-8.018,8.018
	S123.29,135.707,127.719,135.707z"/>
<path d="M84.959,135.707h8.552c4.428,0,8.018-3.59,8.018-8.018s-3.59-8.018-8.018-8.018h-8.552c-4.428,0-8.018,3.59-8.018,8.018
	S80.53,135.707,84.959,135.707z"/>
<path d="M110.615,161.363c4.428,0,8.018-3.59,8.018-8.018v-8.552c0-4.428-3.59-8.018-8.018-8.018s-8.018,3.59-8.018,8.018v8.552
	C102.597,157.773,106.186,161.363,110.615,161.363z"/>
<path d="M110.615,118.602c4.428,0,8.018-3.59,8.018-8.018v-8.552c0-4.428-3.59-8.018-8.018-8.018s-8.018,3.59-8.018,8.018v8.552
	C102.597,115.013,106.186,118.602,110.615,118.602z"/>
</svg>