<?xml version="1.0" standalone="no"?>
<!DOCTYPE svg PUBLIC "-//W3C//DTD SVG 20010904//EN" "http://www.w3.org/TR/2001/REC-SVG-20010904/DTD/svg10.dtd">
<!-- Created using Krita: https://krita.org -->
<svg xmlns="http://www.w3.org/2000/svg" 
    xmlns:xlink="http://www.w3.org/1999/xlink"
    xmlns:krita="http://krita.org/namespaces/svg/krita"
    xmlns:sodipodi="http://sodipodi.sourceforge.net/DTD/sodipodi-0.dtd"
    width="259.2pt"
    height="259.2pt"
    viewBox="0 0 259.2 259.2">
<defs/>
<g transform="translate(-25,17)">
    <path id="shape0" transform="translate(29.840336994049, 45.800508040418)" fill="#0a0a00" fill-rule="evenodd" stroke="#000000" stroke-width="0.0072" stroke-linecap="square" stroke-linejoin="bevel" d="M120.452 0C90.6554 15.3847 69.527 32.0759 41.5405 61.5906C13.554 91.1052 -0.716631 125.16 0.0276931 142.624C0.772018 160.088 4.70091 183.035 31.6657 181.527C50.995 180.446 68.9892 174.056 91.6065 161.998C114.224 149.939 147.156 122.99 163.93 103.982C180.705 84.9738 194.129 61.5592 198.083 47.0192C202.036 32.4793 205.211 24.3609 201.266 2.08336C199.007 27.1445 193.364 43.3082 161.869 81.3929C141.362 104.792 128.911 116.711 92.3108 137.991C55.7108 159.271 43.4791 153.651 34.5338 143.817C25.5886 133.982 32.666 101.993 43.2395 83.7995C57.7599 58.8141 79.9662 31.9379 120.452 0Z" sodipodi:nodetypes="czzszzzcczzsc"/>
    <path id="shape1" transform="translate(116.491229390844, 29.9182658606506)" fill="#0a0a00" fill-rule="evenodd" stroke="#0a0a00" stroke-width="0.0072" stroke-linecap="square" stroke-linejoin="bevel" d="M13.1161 96.1392C-18.0509 97.4872 14.1814 43.8547 29.05 29.9028C43.9185 15.951 84.3513 -8.06039 98.7358 2.69086C108.325 9.85837 105.944 36.9188 98.769 52.7269C91.5945 68.5351 82.6725 82.3506 56.2173 99.6817C76.4584 77.5337 83.9284 63.19 86.3704 52.1609C88.8123 41.1318 87.3723 31.1851 80.5912 26.47C73.8101 21.7549 52.0241 27.8576 39.2239 38.1931C26.4237 48.5285 -1.1112 81.7313 13.1161 96.1392Z" sodipodi:nodetypes="cczzczzzc"/>
    <path id="shape2" transform="translate(143.897722935148, 68.7884634337264)" fill="#0a0a00" fill-rule="evenodd" stroke="#0a0a00" stroke-width="0.0072" stroke-linecap="square" stroke-linejoin="bevel" d="M38.5048 0.963797C27.5162 -5.53227 -2.13431 22.4547 0.122003 35.6707C2.37832 48.8868 30.2073 35.7731 38.2447 18.5109C46.2821 1.24867 38.5725 0.844792 38.5048 0.963797Z" sodipodi:nodetypes="czcc"/>
    <path id="shape3" transform="translate(83.8928297155613, 68.1493035300184)" fill="#0a0a00" fill-rule="evenodd" stroke="#0a0a00" stroke-width="0.0072" stroke-linecap="square" stroke-linejoin="bevel" d="M91.2505 1.00767C126.877 -8.49582 87.8422 51.8022 68.3017 73.4877C48.7612 95.1733 19.2007 108.019 9.62012 104.025C0.0395052 100.03 -1.70925 79.6232 1.42009 68.1567C4.86078 55.5493 16.5237 38.3881 28.4823 27.3278C14.8349 48.1901 11.97 61.2868 12.1708 69.1394C12.3717 76.992 13.6812 80.703 19.3989 83.5507C25.1167 86.3984 42.3926 78.2239 57.7765 61.4507C73.1604 44.6775 70.4065 46.2872 75.6192 34.7245C75.1467 27.3258 80.3571 16.0868 91.2505 1.00767Z" sodipodi:nodetypes="czzsczzzcc"/>
    <path id="shape4" transform="matrix(0.999997846405705 0.0020753756171887 -0.0020753756171887 0.999997846405705 92.847099208162 -6.53212524457895)" fill="#0a0a00" fill-rule="evenodd" stroke="#0a0a00" stroke-width="0.0072" stroke-linecap="square" stroke-linejoin="bevel" d="M0 75.1246C26.2496 37.6487 41.4447 28.6391 74.6704 12.5423C107.896 -3.55457 156.137 -3.45608 171.702 8.83479C187.267 21.1257 191.787 64.1203 176.518 95.0723C161.248 126.024 134.032 165.797 98.552 180.572C128.988 148.254 135.921 133.955 147.992 109.648C160.062 85.3419 165.57 51.2107 151.562 37.0898C137.555 22.9688 116.55 22.5377 92.8465 26.7645C69.1429 30.9912 33.3122 44.6844 0 75.1246Z" sodipodi:nodetypes="czzzczzzc"/>
</g>
</svg>
