<svg id="e18o3tzJThD1" xmlns="http://www.w3.org/2000/svg" xmlns:xlink="http://www.w3.org/1999/xlink" viewBox="0 0 1920 1080" shape-rendering="geometricPrecision" text-rendering="geometricPrecision" project-id="af93097282aa4257950801deea5ffc30" export-id="7dfb74fd2832470f9cf2fbb4dbcf01fb" cached="false"><g transform="matrix(1.75 0 0 1.75-214.632386-481.333443)"><path d="M390.64575,218.67931h100v100h100v100h-200v-200Z" transform="matrix(0 1-1 0 1289.897844 192.97336)" fill="#d2dbed" stroke="#3d5689" stroke-width="5"/><path d="M1224.9398,683.61911h200v200h-200v-200Z" transform="translate(-1053.721266-300)" fill="#edd2d2" stroke="#853e3e" stroke-width="5"/><path d="M290.64575,418.67932v-100h100v-.00001h200v100h-200v.00001h-100Z" transform="matrix(0 1-1 0 989.897849 92.97336)" fill="#edd2d2" stroke="#853e3e" stroke-width="5"/><path d="M390.64575,218.67931h100v100h200v100h-300v-200Z" transform="matrix(0 1-1 0 1189.897844 92.97336)" fill="#d4edd2" stroke="#44843f" stroke-width="5"/><path d="M390.64575,218.67931h100v100h200v100h-300v-200Z" transform="matrix(-1 0 0-1 1461.864284 802.29842)" fill="#e0d2ed" stroke="#5b397b" stroke-width="5"/><path d="M1460.40131,392.04669h200v100h100v100h-300v-200Z" transform="matrix(0 1-1 0 963.265224-1076.7822)" fill="#edecd2" stroke="#a09d47" stroke-width="5"/><path d="M390.64575,218.67931h100v100h100v-100h100v200h-300v-200Z" transform="translate(80.572784 364.9398)" fill="#e0d2ed" stroke="#5b397b" stroke-width="5"/><path d="M490.64575,218.67931h100v100h100v100h-300v-100h100v-100Z" transform="translate(-219.427216 364.9398)" fill="#d4edd2" stroke="#44843f" stroke-width="5"/><path d="M290.64575,418.67931v-100h400v100h-400Z" transform="matrix(0 1-1 0 1489.897844 92.97336)" fill="#d2dbed" stroke="#3d5689" stroke-width="5"/></g></svg>
